<svg width="33" height="28" viewBox="0 0 33 28" fill="none" xmlns="http://www.w3.org/2000/svg">
<path d="M33 14.4514C33 13.692 32.4357 13.0644 31.7035 12.9651L31.5 12.9514L5.132 12.9526L14.658 3.46555C15.245 2.88103 15.2471 1.93128 14.6625 1.34424C14.1312 0.810558 13.2979 0.760351 12.7098 1.19479L12.5412 1.33967L0.441227 13.3877C0.363846 13.4647 0.296635 13.5481 0.23959 13.6362C0.223476 13.6627 0.207077 13.6898 0.191528 13.7175C0.177227 13.7412 0.164303 13.7658 0.152111 13.7907C0.135178 13.8269 0.118633 13.8643 0.103611 13.9025C0.091404 13.9319 0.0812149 13.9606 0.0719185 13.9894C0.0608673 14.0252 0.0501289 14.0634 0.0408936 14.1021C0.0340271 14.1291 0.0285873 14.1551 0.0238457 14.1812C0.0171738 14.2201 0.0114975 14.2603 0.00744629 14.301C0.00394821 14.332 0.0018425 14.3628 0.000679016 14.3936C0.000377655 14.4122 0 14.4318 0 14.4514L0.000751495 14.5095C0.00189972 14.539 0.00391006 14.5684 0.00678635 14.5977L0 14.4514C0 14.5461 0.00876617 14.6387 0.0255356 14.7285C0.0294228 14.7499 0.0340576 14.7719 0.0391884 14.7939C0.0498428 14.839 0.0621567 14.8825 0.0763359 14.9251C0.0832939 14.9463 0.091404 14.9689 0.100067 14.9914C0.117596 15.0365 0.13665 15.0796 0.157608 15.1215C0.167347 15.1412 0.178249 15.1618 0.189671 15.1822C0.208416 15.2155 0.227726 15.2472 0.248146 15.2781C0.262554 15.2999 0.278507 15.3226 0.295166 15.345L0.308147 15.3623C0.34856 15.4151 0.392403 15.4651 0.439339 15.5121L0.441139 15.5135L12.5411 27.5635C13.1281 28.148 14.0779 28.1461 14.6625 27.5591C15.1939 27.0254 15.2406 26.192 14.8036 25.6057L14.6581 25.4378L5.136 15.9526L31.5 15.9514C32.3284 15.9514 33 15.2798 33 14.4514Z" fill="#D9D9D9"/>
</svg>
