<?xml version="1.0" encoding="utf-8"?><svg viewBox="0 0 33 28" xmlns="http://www.w3.org/2000/svg" xmlns:xlink="http://www.w3.org/1999/xlink"><style>:root>svg{display:none}:root>svg:target{display:block}</style><svg viewBox="0 0 14 8" id="arr" xmlns="http://www.w3.org/2000/svg"><path d="M.724.641a.625.625 0 01.814-.06l.07.06 5.391 5.391 5.392-5.39a.625.625 0 01.813-.061l.07.06c.223.222.243.57.061.814l-.06.07L7.44 7.36a.625.625 0 01-.813.06l-.07-.06L.723 1.525a.625.625 0 010-.884z"/></svg><svg viewBox="0 0 33 28" id="last" xmlns="http://www.w3.org/2000/svg"><path d="M0 14.451a1.5 1.5 0 011.296-1.486l.204-.014 26.368.002-9.526-9.487a1.5 1.5 0 011.948-2.271l.169.145 12.1 12.048a1.499 1.499 0 01.44 1.006l.001.057v.058a1.44 1.44 0 01-.007.089L33 14.45a1.514 1.514 0 01-.248.827c-.015.022-.03.045-.047.067l-.013.017c-.04.053-.084.103-.131.15l-.002.002-12.1 12.05a1.5 1.5 0 01-2.263-1.958l.146-.168 9.522-9.485L1.5 15.95a1.5 1.5 0 01-1.5-1.5z"/></svg><svg viewBox="0 0 10 16" id="next" xmlns="http://www.w3.org/2000/svg"><path d="M.97 15.53a.75.75 0 01-.073-.976l.073-.084L7.439 8 .969 1.53A.75.75 0 01.898.554L.97.47a.75.75 0 01.976-.073L2.03.47l7 7a.75.75 0 01.073.976l-.073.084-7 7a.75.75 0 01-1.06 0z"/></svg><svg viewBox="0 0 10 16" id="prev" xmlns="http://www.w3.org/2000/svg"><path d="M9.03 15.53a.75.75 0 00.073-.976l-.073-.084L2.561 8l6.47-6.47a.75.75 0 00.072-.976L9.03.47a.75.75 0 00-.976-.073L7.97.47l-7 7a.75.75 0 00-.073.976l.073.084 7 7a.75.75 0 001.06 0z"/></svg><svg viewBox="0 0 33 28" id="prev-last" xmlns="http://www.w3.org/2000/svg"><path d="M33 14.451a1.5 1.5 0 00-1.297-1.486l-.203-.014-26.368.002 9.526-9.487a1.5 1.5 0 00-1.948-2.271l-.169.145-12.1 12.048a1.502 1.502 0 00-.44 1.006L0 14.45v.058a1.5 1.5 0 00.007.089L0 14.45a1.508 1.508 0 00.295.894l.013.017c.04.053.084.103.131.15l.002.002 12.1 12.05a1.5 1.5 0 002.263-1.958l-.146-.168-9.522-9.485L31.5 15.95a1.5 1.5 0 001.5-1.5z"/></svg><svg viewBox="0 0 23 23" id="video" xmlns="http://www.w3.org/2000/svg"><circle cx="11.5" cy="11.5" r="10.5"/><path d="M15 10.714a1 1 0 010 1.572l-4.382 3.443A1 1 0 019 14.943V8.056a1 1 0 011.618-.786l4.381 3.443z"/></svg></svg>