<svg width="28" height="28" viewBox="0 0 28 28" fill="none" xmlns="http://www.w3.org/2000/svg">
<path fill-rule="evenodd" clip-rule="evenodd" d="M24.2445 3.7556C24.326 3.83688 24.3906 3.93344 24.4348 4.03974C24.4789 4.14604 24.5016 4.26001 24.5016 4.3751C24.5016 4.49019 24.4789 4.60415 24.4348 4.71046C24.3906 4.81676 24.326 4.91332 24.2445 4.9946L4.99451 24.2446C4.83021 24.4089 4.60736 24.5012 4.37501 24.5012C4.14265 24.5012 3.91981 24.4089 3.75551 24.2446C3.5912 24.0803 3.4989 23.8575 3.4989 23.6251C3.4989 23.3927 3.5912 23.1699 3.75551 23.0056L23.0055 3.7556C23.0868 3.67411 23.1833 3.60946 23.2896 3.56535C23.396 3.52124 23.5099 3.49854 23.625 3.49854C23.7401 3.49854 23.8541 3.52124 23.9604 3.56535C24.0667 3.60946 24.1632 3.67411 24.2445 3.7556Z" fill="white"/>
<path fill-rule="evenodd" clip-rule="evenodd" d="M3.75548 3.7556C3.67399 3.83688 3.60934 3.93344 3.56523 4.03974C3.52112 4.14604 3.49841 4.26001 3.49841 4.3751C3.49841 4.49019 3.52112 4.60415 3.56523 4.71046C3.60934 4.81676 3.67399 4.91332 3.75548 4.9946L23.0055 24.2446C23.1698 24.4089 23.3926 24.5012 23.625 24.5012C23.8573 24.5012 24.0802 24.4089 24.2445 24.2446C24.4088 24.0803 24.5011 23.8575 24.5011 23.6251C24.5011 23.3927 24.4088 23.1699 24.2445 23.0056L4.99448 3.7556C4.9132 3.67411 4.81664 3.60946 4.71034 3.56535C4.60403 3.52124 4.49007 3.49854 4.37498 3.49854C4.25988 3.49854 4.14592 3.52124 4.03962 3.56535C3.93331 3.60946 3.83676 3.67411 3.75548 3.7556Z" fill="white"/>
</svg>
