<svg width="20" height="20" viewBox="0 0 20 20" fill="none" xmlns="http://www.w3.org/2000/svg">
<path fill-rule="evenodd" clip-rule="evenodd" d="M17.3175 2.6824C17.3757 2.74045 17.4219 2.80942 17.4534 2.88535C17.4849 2.96129 17.5011 3.04269 17.5011 3.1249C17.5011 3.20711 17.4849 3.28851 17.4534 3.36444C17.4219 3.44037 17.3757 3.50934 17.3175 3.5674L3.5675 17.3174C3.45014 17.4348 3.29097 17.5007 3.125 17.5007C2.95903 17.5007 2.79985 17.4348 2.6825 17.3174C2.56514 17.2 2.49921 17.0409 2.49921 16.8749C2.49921 16.7089 2.56514 16.5498 2.6825 16.4324L16.4325 2.6824C16.4906 2.62419 16.5595 2.57801 16.6355 2.54651C16.7114 2.515 16.7928 2.49878 16.875 2.49878C16.9572 2.49878 17.0386 2.515 17.1145 2.54651C17.1905 2.57801 17.2594 2.62419 17.3175 2.6824Z" fill="white"/>
<path fill-rule="evenodd" clip-rule="evenodd" d="M2.68252 2.6824C2.62431 2.74045 2.57814 2.80942 2.54663 2.88535C2.51512 2.96129 2.4989 3.04269 2.4989 3.1249C2.4989 3.20711 2.51512 3.28851 2.54663 3.36444C2.57814 3.44037 2.62431 3.50934 2.68252 3.5674L16.4325 17.3174C16.5499 17.4348 16.709 17.5007 16.875 17.5007C17.041 17.5007 17.2002 17.4348 17.3175 17.3174C17.4349 17.2 17.5008 17.0409 17.5008 16.8749C17.5008 16.7089 17.4349 16.5498 17.3175 16.4324L3.56752 2.6824C3.50946 2.62419 3.44049 2.57801 3.36456 2.54651C3.28863 2.515 3.20723 2.49878 3.12502 2.49878C3.04281 2.49878 2.96141 2.515 2.88548 2.54651C2.80955 2.57801 2.74058 2.62419 2.68252 2.6824Z" fill="white"/>
</svg>
