<svg width="40" height="40" viewBox="0 0 40 40" fill="none" xmlns="http://www.w3.org/2000/svg">
<circle cx="20" cy="20" r="20" fill="#E74B23"/>
<path fill-rule="evenodd" clip-rule="evenodd" d="M21.3995 19.9999L27.7195 26.3149C27.8118 26.4067 27.885 26.5157 27.9349 26.6359C27.9849 26.756 28.0107 26.8848 28.0107 27.0149C28.0107 27.145 27.9849 27.2739 27.9349 27.394C27.885 27.5141 27.8118 27.6232 27.7195 27.7149C27.5321 27.9012 27.2787 28.0057 27.0145 28.0057C26.7503 28.0057 26.4969 27.9012 26.3096 27.7149L19.9995 21.3999L13.6895 27.7149C13.5021 27.9012 13.2487 28.0057 12.9845 28.0057C12.7203 28.0057 12.4669 27.9012 12.2795 27.7149C12.1873 27.6232 12.1141 27.5141 12.0641 27.394C12.0141 27.2739 11.9883 27.145 11.9883 27.0149C11.9883 26.8848 12.0141 26.756 12.0641 26.6359C12.1141 26.5157 12.1873 26.4067 12.2795 26.3149L18.5995 19.9999L12.2795 13.6849C12.1873 13.5932 12.1141 13.4841 12.0641 13.364C12.0141 13.2439 11.9883 13.115 11.9883 12.9849C11.9883 12.8548 12.0141 12.726 12.0641 12.6059C12.1141 12.4857 12.1873 12.3767 12.2795 12.2849C12.4669 12.0987 12.7203 11.9941 12.9845 11.9941C13.2487 11.9941 13.5021 12.0987 13.6895 12.2849L19.9995 18.5999L26.3096 12.2849C26.4969 12.0987 26.7503 11.9941 27.0145 11.9941C27.2787 11.9941 27.5321 12.0987 27.7195 12.2849C27.8118 12.3767 27.885 12.4857 27.9349 12.6059C27.9849 12.726 28.0107 12.8548 28.0107 12.9849C28.0107 13.115 27.9849 13.2439 27.9349 13.364C27.885 13.4841 27.8118 13.5932 27.7195 13.6849L21.3995 19.9999Z" fill="white"/>
</svg>
