<svg width="70" height="70" viewBox="0 0 70 70" fill="none" xmlns="http://www.w3.org/2000/svg">
<g opacity="0.4">
<path d="M56.483 7.74658H56.0144H30.5416C17.8818 7.74658 11.5163 7.74703 8.22219 7.78213C4.96832 7.8168 4.77468 7.8898 4.51722 7.98685C4.51077 7.98928 4.50428 7.99173 4.4977 7.99419L4.3225 7.52589L4.4977 7.99419C3.7636 8.26883 3.1611 8.87124 2.8764 9.62404L56.483 7.74658ZM56.483 7.74658L56.5133 7.27892L56.5918 6.06842C56.6507 5.15837 56.8064 4.52269 57.0623 4.05291C57.3109 3.59661 57.6741 3.26002 58.2241 2.98305L57.9994 2.53674M56.483 7.74658L57.9994 2.53674M64.3947 67.3172L64.178 66.8666L63.392 67.2446H33.9747C20.1353 67.2446 12.7484 67.2409 8.77052 67.2097C6.77946 67.1941 5.65126 67.1716 4.99735 67.1397C4.66897 67.1237 4.47426 67.106 4.35538 67.0882C4.28761 67.0781 4.25597 67.0695 4.24577 67.0664C4.02647 66.9448 3.76202 66.7372 3.51271 66.4879C3.26306 66.2383 3.05521 65.9734 2.93375 65.7539C2.93071 65.7444 2.92213 65.7141 2.91193 65.6483C2.89429 65.5348 2.87643 65.3493 2.86011 65.0373C2.82759 64.4159 2.80369 63.3487 2.78552 61.4721C2.74923 57.7232 2.73604 50.7805 2.71854 37.8025C2.70124 24.9924 2.69626 18.0449 2.72184 14.2302C2.73464 12.3212 2.75508 11.2044 2.78499 10.532C2.81592 9.83649 2.85665 9.67628 2.87638 9.62407L64.3947 67.3172ZM64.3947 67.3172L64.178 66.8666C65.6044 66.1807 66.5211 65.1795 67.0708 63.7104C67.073 63.7044 67.0752 63.6984 67.0775 63.6925C67.1737 63.4372 67.2471 63.2424 67.2815 59.648C67.3162 56.0173 67.3161 48.9829 67.3152 34.9956C67.3143 21.0411 67.3133 14.0063 67.2783 10.3678C67.2435 6.74991 67.1699 6.55439 67.0743 6.30026L67.0689 6.28572L67.0688 6.28563C66.5213 4.82193 65.6031 3.81962 64.178 3.13433L64.1779 3.13432C63.7441 2.92562 63.5733 2.84917 63.2396 2.80147C62.863 2.74764 62.3022 2.73545 61.1047 2.71457C59.9084 2.69375 59.3473 2.68637 58.9904 2.72326C58.6881 2.7545 58.565 2.81138 58.2241 2.98304L57.9994 2.53674M64.3947 67.3172L57.9994 2.53674M3.46897 9.45629L3.469 9.45623C3.57633 9.27159 3.73346 9.08863 3.89172 8.93761C4.04917 8.78736 4.23894 8.63895 4.42803 8.5436L3.46897 9.45629ZM3.46897 9.45629C3.4249 9.53211 3.36912 9.63089 3.32597 9.79616C3.28806 9.94138 3.26262 10.1263 3.2424 10.3868C3.20182 10.9099 3.17574 11.8381 3.15833 13.5858C3.12342 17.0905 3.12318 23.9536 3.12318 37.6223V65.0585V65.2246M3.46897 9.45629L3.12318 65.2246M3.12318 65.2246L3.22252 65.3576M3.12318 65.2246L3.22252 65.3576M3.22252 65.3576L3.50444 65.7352C3.68826 65.9815 4.01914 66.3124 4.26538 66.4962L4.64299 66.7781L4.77605 66.8774M3.22252 65.3576L4.77605 66.8774M4.77605 66.8774H4.94211M4.77605 66.8774H4.94211M4.94211 66.8774H33.9505H62.9591H63.0705M4.94211 66.8774H63.0705M63.0705 66.8774L63.1714 66.8301M63.0705 66.8774L63.1714 66.8301M63.1714 66.8301L63.9297 66.4745L63.7174 66.0218M63.1714 66.8301L63.7174 66.0218M63.7174 66.0218L63.9297 66.4745C65.0818 65.9341 65.7999 65.2576 66.3394 64.178C66.5247 63.8073 66.6524 63.5164 66.7249 63.1781C66.7958 62.8468 66.808 62.4956 66.8074 62.0141C66.8066 61.3081 66.7128 60.6898 66.4886 60.1218C66.2636 59.5516 65.9179 59.0588 65.4492 58.5901C64.9236 58.0645 64.4957 57.709 63.8297 57.4989C63.2049 57.3018 62.3938 57.2417 61.1345 57.1879C59.6038 57.1226 58.729 57.0016 58.1491 56.7488C57.6209 56.5185 57.3037 56.1626 56.9586 55.4599L56.9586 55.4599M63.7174 66.0218L56.9586 55.4599M56.9586 55.4599L56.623 54.7765L56.5867 31.821L56.5502 8.74969L56.5494 8.25048M56.9586 55.4599L56.5494 8.25048M56.5494 8.25048L56.0502 8.25048M56.5494 8.25048L56.0502 8.25048M56.0502 8.25048L30.5886 8.25076M56.0502 8.25048L30.5886 8.25076M30.5886 8.25076C18.6058 8.25082 12.2304 8.25437 8.79544 8.28607M30.5886 8.25076L8.79544 8.28607M8.79544 8.28607C7.08035 8.30189 6.08819 8.32478 5.49489 8.35852M8.79544 8.28607L5.49489 8.35852M5.49489 8.35852C4.92712 8.3908 4.64584 8.43375 4.42812 8.54355L5.49489 8.35852ZM59.0918 3.18445L59.0917 3.18448C58.6951 3.27195 58.3506 3.40276 58.0558 3.62925C57.7591 3.85729 57.5507 4.1531 57.3785 4.50807C57.2748 4.72177 57.2161 4.91754 57.1758 5.44506C57.1366 5.95659 57.1113 6.83037 57.0944 8.42545C57.0605 11.6233 57.0602 17.7795 57.0617 29.8826C57.0632 41.8163 57.0658 47.9743 57.0997 51.2174C57.1166 52.8358 57.1413 53.7412 57.1786 54.2791C57.2164 54.8229 57.2698 55.0429 57.3691 55.2616L57.8244 55.0549L57.3691 55.2616C57.4804 55.5069 57.6097 55.7452 57.8013 55.9472C58.0005 56.1573 58.2414 56.3019 58.539 56.4035C59.0908 56.5917 59.9082 56.6497 61.1617 56.7001C62.529 56.755 63.2893 56.8248 63.8681 56.9984C64.42 57.1639 64.8327 57.432 65.4796 57.9697L66.1321 58.5121L66.9533 59.1946L66.9517 58.1268L66.9144 32.5838L66.8771 7.04077L66.8769 6.92973L66.8298 6.82919L66.4742 6.07095L66.0215 6.28326L66.4742 6.07092C65.9287 4.90805 65.2459 4.18924 64.1486 3.64896L64.1486 3.64894C63.7455 3.45053 63.4483 3.31949 63.0346 3.24245C62.6452 3.16993 62.1627 3.14752 61.3922 3.12256L61.3771 3.58898L61.3922 3.12256C60.9165 3.10717 60.4288 3.10522 60.0245 3.11459C59.6416 3.12346 59.2797 3.14306 59.0918 3.18445Z" fill="white" stroke="white"/>
<path d="M30.3866 34.8667L30.3858 34.8675C30.3432 34.909 30.3001 34.9356 30.2911 34.9411L30.2901 34.9418C30.2735 34.9521 30.2575 34.961 30.2451 34.9678C30.2198 34.9815 30.1902 34.9964 30.1598 35.0112C30.098 35.0415 30.0149 35.0803 29.9158 35.1255C29.7166 35.2164 29.4407 35.3388 29.115 35.4814C28.4629 35.7668 27.6041 36.1359 26.7451 36.5012C25.886 36.8664 25.0251 37.2284 24.3686 37.4994C24.0407 37.6347 23.762 37.7481 23.5595 37.828C23.4587 37.8678 23.3736 37.9005 23.3095 37.9238C23.278 37.9352 23.2469 37.9462 23.2194 37.9548C23.206 37.959 23.188 37.9644 23.1684 37.9693C23.1681 37.9694 23.1678 37.9694 23.1674 37.9696C23.1583 37.9719 23.1029 37.9861 23.0361 37.9861C22.9585 37.9861 22.8928 37.9678 22.8744 37.9628L22.8728 37.9623C22.8426 37.954 22.8124 37.9439 22.7858 37.9344C22.7317 37.9151 22.6669 37.8893 22.5962 37.8596C22.4533 37.7998 22.2642 37.7154 22.0442 37.6136C21.6029 37.4097 21.0231 37.1296 20.4099 36.8224L30.3866 34.8667ZM30.3866 34.8667C30.532 34.7242 30.5574 34.5344 30.5227 34.3912C30.4962 34.282 30.44 34.2118 30.4216 34.1896C30.3799 34.1391 30.337 34.1082 30.3271 34.101L30.3263 34.1005C30.2977 34.0798 30.2712 34.0651 30.2617 34.0598C30.2361 34.0457 30.2064 34.031 30.1793 34.0181C30.122 33.9906 30.0408 33.9536 29.9413 33.9094C29.741 33.8203 29.4511 33.6949 29.0945 33.5428C28.3806 33.2382 27.3921 32.8236 26.301 32.3724C24.8983 31.7923 23.8965 31.3611 23.2239 31.046C22.8869 30.8881 22.6408 30.7633 22.4715 30.6665C22.3867 30.618 22.3279 30.5804 22.2895 30.5528C22.2741 30.5417 22.2646 30.5341 22.2595 30.5299C22.1765 30.4176 22.1052 30.225 22.1052 29.812C22.1052 29.5947 22.1288 29.4645 22.1712 29.3655C22.2109 29.2727 22.2842 29.1677 22.4524 29.0354C22.82 28.746 23.511 28.4195 24.8472 27.8722C25.432 27.6327 26.0041 27.4151 26.4531 27.2578C26.6781 27.179 26.868 27.1168 27.0111 27.0747C27.0812 27.0541 27.1356 27.0397 27.1749 27.0307C27.1892 27.0347 27.2064 27.0397 27.2268 27.0459C27.3129 27.0721 27.4345 27.1126 27.5904 27.1674C27.9009 27.2766 28.3298 27.4362 28.8475 27.6351C29.8819 28.0325 31.2592 28.5823 32.7289 29.1883L38.0833 31.3961L38.2799 31.4772L38.4747 31.3918L42.3159 29.7078L42.1152 29.2498L42.3159 29.7078L46.0613 28.0657L47.1362 28.0644L47.1363 28.0644C47.6121 28.0638 47.8967 28.0787 48.1125 28.1166C48.3122 28.1516 48.4641 28.2084 48.6661 28.3159C51.1941 29.6603 51.4812 32.9742 49.3169 34.5671C49.2803 34.5939 49.1484 34.668 48.886 34.7907C48.6392 34.9061 48.3116 35.049 47.9164 35.2135C47.1268 35.542 46.0809 35.9511 44.8999 36.39L45.0729 36.8555L44.8999 36.39L40.9163 37.8705L40.732 37.939M30.3866 34.8667L40.732 37.939M40.732 37.939L40.6437 38.1147M40.732 37.939L40.6437 38.1147M40.6437 38.1147L37.3184 44.7338L34.0665 51.2068L31.576 52.4795C30.7929 52.8797 30.1984 53.1777 29.731 53.3891M40.6437 38.1147L29.731 53.3891M22.9131 29.8565L22.913 29.8553C22.9058 29.6815 22.9894 29.5641 23.01 29.5357C23.0415 29.4923 23.0734 29.4626 23.0894 29.4483C23.1234 29.4181 23.1571 29.3954 23.1766 29.3827C23.2198 29.3546 23.2713 29.3258 23.3217 29.299C23.4259 29.2437 23.5696 29.1736 23.7386 29.0947C24.0787 28.9359 24.5441 28.7307 25.0539 28.5167C25.5599 28.3042 26.0254 28.1098 26.3679 27.9677C26.5391 27.8966 26.68 27.8384 26.7801 27.7974C26.83 27.777 26.8708 27.7605 26.9004 27.7487C26.915 27.7428 26.9285 27.7375 26.9398 27.7332L26.9595 27.7259C26.9631 27.7246 26.9689 27.7226 26.9757 27.7203L26.9761 27.7202C26.9802 27.7189 26.9975 27.7132 27.0194 27.7081L27.02 27.708C27.1053 27.6882 27.176 27.6966 27.1888 27.6982L27.19 27.6983C27.2139 27.701 27.2327 27.7049 27.2419 27.7069C27.2613 27.7111 27.277 27.7157 27.2842 27.7178C27.3004 27.7227 27.316 27.728 27.3271 27.7319C27.3511 27.7403 27.3814 27.7515 27.4149 27.7643C27.4832 27.7902 27.5794 27.8278 27.6981 27.8749C27.9362 27.9692 28.2723 28.1044 28.6735 28.2669C29.4763 28.5921 30.5434 29.0282 31.6166 29.469C32.6898 29.9099 33.7698 30.3558 34.5981 30.7006C35.0121 30.8729 35.364 31.0204 35.621 31.1294C35.8578 31.2298 36.0535 31.3138 36.1153 31.3478L36.1154 31.3479C36.2265 31.4091 36.361 31.5392 36.3844 31.7475C36.4037 31.9188 36.3341 32.0451 36.3031 32.0946C36.2394 32.1961 36.1501 32.2663 36.1077 32.2987C36.0007 32.3802 35.851 32.4686 35.6931 32.5543C35.3676 32.731 34.9138 32.946 34.4471 33.1505C33.9793 33.3554 33.4865 33.555 33.0805 33.6994C32.8784 33.7713 32.6898 33.8324 32.5329 33.8735C32.4549 33.8939 32.3762 33.9117 32.3029 33.9226C32.2431 33.9315 32.1348 33.9447 32.0217 33.9227L22.9131 29.8565ZM22.9131 29.8565C22.9208 30.0331 23.0185 30.1446 23.0352 30.1638M22.9131 29.8565L23.0352 30.1638M28.5148 52.789C28.6586 52.9329 28.8321 52.9364 28.8592 52.9369L28.8611 52.937C28.9134 52.9384 28.9555 52.9315 28.9746 52.928C29.0167 52.9204 29.0543 52.9089 29.0773 52.9015C29.128 52.8852 29.1879 52.8621 29.2491 52.8372C29.3748 52.7859 29.546 52.7103 29.7476 52.6178C30.1526 52.432 30.6996 52.169 31.2918 51.8735L31.2918 51.8735L33.4329 50.8049L33.5822 50.7304L33.6568 50.5812L37.0025 43.8925L40.26 37.3802L44.3425 35.8664C46.6608 35.0068 47.9673 34.5063 48.7231 34.0712C49.1133 33.8465 49.3962 33.6183 49.6009 33.3356C49.8046 33.0543 49.9025 32.7569 49.983 32.4581L49.983 32.4581C50.6279 30.0614 48.3054 28.0209 45.9888 28.8897C45.705 28.9961 43.9394 29.7554 42.0788 30.5697L42.2793 31.0277L42.0788 30.5697C36.0865 33.1924 31.3317 35.2576 28.044 36.6669C26.3998 37.3717 25.1242 37.9118 24.2446 38.2754C23.8044 38.4574 23.4662 38.594 23.2316 38.6846C23.1313 38.7234 23.0531 38.7525 22.9956 38.7728C22.9655 38.7622 22.9286 38.7485 22.8847 38.7315C22.7409 38.6756 22.5444 38.5924 22.3075 38.4867C21.8349 38.2759 21.2186 37.9835 20.5743 37.6608L18.2128 36.4777L18.0051 36.3737L17.7917 36.4653L15.6324 37.3921L15.6324 37.3921L13.4733 38.3188L12.7952 38.6099L13.3168 39.1318L16.4271 42.244L16.4271 42.244L19.5374 45.356L19.7706 45.5894L20.0768 45.4668L26.2161 43.0094C28.8896 41.9394 30.4249 41.3343 31.3282 41.0126C31.7829 40.8507 32.0555 40.7687 32.2236 40.7331C32.2805 40.7211 32.3169 40.7165 32.3374 40.7147C32.3655 40.7284 32.3845 40.7388 32.3968 40.7461M28.5148 52.789L28.868 52.436L28.5156 52.7897C28.5153 52.7895 28.5151 52.7892 28.5148 52.789ZM28.5148 52.789C28.4218 52.6959 28.3921 52.5936 28.3823 52.5536C28.3705 52.5054 28.3683 52.4657 28.3678 52.445C28.3667 52.403 28.3711 52.3694 28.373 52.3557C28.3775 52.3242 28.384 52.2963 28.3879 52.2807C28.3966 52.2453 28.4088 52.2038 28.4217 52.1618C28.4483 52.0753 28.4881 51.9549 28.5385 51.8073C28.6397 51.5107 28.789 51.0881 28.9748 50.572C29.3466 49.5392 29.8671 48.1241 30.4466 46.5758C31.5689 43.5773 32.1253 42.0675 32.3219 41.2617C32.3697 41.0653 32.3911 40.9304 32.3969 40.8376C32.3997 40.793 32.3985 40.7637 32.3968 40.7461M32.3968 40.7461C32.4117 40.7548 32.4169 40.759 32.4168 40.759C32.4167 40.759 32.4018 40.747 32.3937 40.7248C32.3934 40.7242 32.3933 40.7238 32.3933 40.7238C32.3933 40.7238 32.3953 40.7304 32.3968 40.7461ZM29.731 53.3891C29.2585 53.6027 28.9471 53.7131 28.7236 53.7563M29.731 53.3891L28.7236 53.7563M28.7236 53.7563C28.5172 53.7962 28.4144 53.7734 28.3359 53.738M28.7236 53.7563L28.3359 53.738M28.3359 53.738C28.2335 53.6919 28.115 53.5986 27.9089 53.3924L28.3359 53.738ZM23.0352 30.1638C23.0357 30.1643 23.0361 30.1648 23.0364 30.1652M23.0352 30.1638L23.0364 30.1652M23.0364 30.1652C23.0671 30.2006 23.0964 30.2243 23.1097 30.2348M23.0364 30.1652L23.1097 30.2348M23.1097 30.2348C23.1387 30.2576 23.166 30.2743 23.18 30.2827M23.1097 30.2348L23.18 30.2827M23.18 30.2827C23.2117 30.3017 23.2481 30.3206 23.2815 30.3374M23.18 30.2827L23.2815 30.3374M23.2815 30.3374C23.3513 30.3725 23.4475 30.4176 23.5624 30.4698M23.2815 30.3374L23.5624 30.4698M23.5624 30.4698C23.7941 30.5751 24.1222 30.7185 24.5135 30.8865M23.5624 30.4698L24.5135 30.8865M24.5135 30.8865C25.2971 31.2228 26.3447 31.662 27.4052 32.1003M24.5135 30.8865L27.4052 32.1003M27.4052 32.1003C28.4659 32.5386 29.5414 32.9769 30.381 33.3114M27.4052 32.1003L30.381 33.3114M30.381 33.3114C30.8005 33.4785 31.1629 33.6205 31.4358 33.7238M30.381 33.3114L31.4358 33.7238M31.4358 33.7238C31.5719 33.7753 31.6883 33.8182 31.7795 33.8501M31.4358 33.7238L31.7795 33.8501M31.7795 33.8501C31.8564 33.877 31.9509 33.909 32.0216 33.9227L31.7795 33.8501ZM27.1238 27.0179C27.1237 27.0178 27.1257 27.0182 27.1301 27.0191C27.1261 27.0185 27.1239 27.018 27.1238 27.0179ZM35.5077 31.4985C35.5111 31.4953 35.5131 31.4937 35.5132 31.4937C35.5134 31.4937 35.5117 31.4953 35.5077 31.4985ZM22.9121 38.8004C22.8998 38.8038 22.9016 38.8026 22.9133 38.8001C22.9129 38.8002 22.9125 38.8003 22.9121 38.8004ZM23.0714 38.7971C23.0744 38.7977 23.076 38.7981 23.0761 38.7982C23.0762 38.7983 23.0747 38.7979 23.0714 38.7971Z" fill="white" stroke="white"/>
</g>
</svg>
