<svg width="70" height="70" viewBox="0 0 70 70" fill="none" xmlns="http://www.w3.org/2000/svg">
<g opacity="0.4">
<path fill-rule="evenodd" clip-rule="evenodd" d="M35.7688 1.59346C32.2666 2.8957 29.355 5.59207 27.7481 9.02111C26.2714 12.1723 26.0248 16.1122 27.1008 19.3624C28.1683 22.5873 30.5543 25.5957 33.3122 27.1943L34.4681 27.8644L34.4712 32.7283L34.474 37.5921L34.7904 37.8894C35.1852 38.2602 35.6222 38.2689 35.9779 37.9132C36.2421 37.6491 36.2514 37.4575 36.2514 32.2606C36.2514 26.1655 36.3695 26.7586 35.0209 26.0837C31.9025 24.5231 29.502 21.5161 28.5842 18.0206C28.2161 16.6194 28.169 13.841 28.4889 12.4128C29.3252 8.67945 31.7656 5.51674 35.1182 3.82115L35.8308 3.46076L35.8702 9.78359L35.9096 16.1066L36.2746 16.8853C36.7195 17.8346 37.6209 18.7623 38.5977 19.2769C39.2634 19.6275 39.4536 19.6612 40.7631 19.6612C42.0737 19.6612 42.2623 19.6276 42.9309 19.2757C43.8763 18.7778 44.7497 17.8719 45.2327 16.8883L45.6166 16.1066L45.6572 9.85168C45.6884 5.04615 45.7364 3.5968 45.8645 3.5968C46.1334 3.5968 47.8427 4.64092 48.7219 5.34228C50.4373 6.71057 52.2631 9.52533 52.8663 11.7316C53.2165 13.0126 53.2901 16.0115 53.0056 17.4155C52.4925 19.9477 51.3439 22.0402 49.4462 23.8995C48.2092 25.1117 47.0095 25.8829 45.3034 26.5629C44.6798 26.8115 44.1108 27.125 44.0387 27.2597C43.9603 27.4062 43.9076 30.1707 43.9076 34.1444V40.7843H41.6822C39.1316 40.7843 38.849 40.8729 38.849 41.673C38.849 42.5942 38.523 42.5611 47.6637 42.566L55.8705 42.5704L56.4516 43.5883C56.7711 44.1481 57.0326 44.7776 57.0326 44.9872C57.0326 45.1979 56.8132 45.694 56.5414 46.0975C55.7882 47.2158 55.535 47.8758 55.5317 48.7294C55.5291 49.3943 55.6384 49.7198 56.349 51.1637C56.8724 52.2271 57.1693 53.0018 57.1693 53.3035C57.1693 53.6125 56.8621 54.3896 56.2835 55.5443C55.1634 57.7797 55.1164 58.0601 55.5984 59.6314C56.1632 61.4729 56.1411 61.5266 54.0821 63.3032L52.3723 64.7784L43.3889 64.8525L34.4057 64.9265L31.3408 65.8432C29.6552 66.3473 28.1632 66.8619 28.0254 66.9866C27.7723 67.2156 27.6944 67.7962 27.8794 68.0734C27.9346 68.1561 28.1178 68.2965 28.2864 68.3852C28.5463 68.5221 29.065 68.4061 31.7044 67.6211L34.8158 66.6956L43.8974 66.6544L52.979 66.6131L54.1092 65.6536C56.1884 63.8883 57.2098 62.8723 57.461 62.3193C57.7883 61.5989 57.7814 60.5672 57.4428 59.5831C57.0053 58.3114 57.0642 57.9703 58.0776 55.9076C59.2996 53.4203 59.3028 53.1795 58.1459 50.8182C57.644 49.7941 57.3073 48.9295 57.3089 48.6698C57.3108 48.3906 57.5311 47.8972 57.9255 47.2883C59.0488 45.5541 59.0751 44.5628 58.0452 42.7749C57.696 42.1688 57.2607 41.473 57.0777 41.2286L56.7452 40.7843H51.2151H45.685V34.586V28.3876L46.5369 28.0201C48.7291 27.0741 51.1138 25.1018 52.5138 23.0766C55.5503 18.6841 55.8897 12.8328 53.3739 8.24523C51.6444 5.09168 48.9277 2.7568 45.5749 1.5426L44.7129 1.23047L44.3444 1.50541L43.976 1.78035L43.9076 8.73838C43.8592 13.6664 43.7921 15.8017 43.6775 16.0572C43.4089 16.6566 42.6443 17.4333 42.0631 17.6973C41.3492 18.0216 40.1741 18.0204 39.4566 17.6944C38.774 17.3843 37.9892 16.4917 37.7773 15.7842C37.6661 15.4134 37.6186 13.2419 37.6186 8.54697V1.83928L37.2583 1.556C36.8196 1.21078 36.7961 1.21146 35.7688 1.59346ZM29.8598 32.912C28.6107 33.8353 27.7174 34.611 27.3204 35.1168C26.8401 35.7288 26.1543 37.1826 24.1393 41.8611C22.7266 45.1414 21.4023 48.0438 21.1964 48.3108C20.6642 49.0014 19.9956 49.3175 15.5606 50.9754C13.3921 51.7861 11.4927 52.5509 11.3394 52.6749C10.7932 53.1172 11.1535 54.1827 11.8493 54.1827C12.1837 54.1827 19.6056 51.4257 20.8285 50.8471C21.3158 50.6166 21.8725 50.1885 22.3304 49.6923C23.0147 48.9509 23.2129 48.5427 25.6557 42.847C28.6419 35.8843 28.46 36.1711 31.1252 34.2158C32.7418 33.0299 32.9701 32.7999 32.9701 32.3587C32.9701 32.0734 32.3465 31.4874 32.0429 31.4874C31.9019 31.4874 30.9196 32.1285 29.8598 32.912Z" fill="white"/>
</g>
</svg>
