<svg width="70" height="70" viewBox="0 0 70 70" fill="none" xmlns="http://www.w3.org/2000/svg">
<g opacity="0.4">
<path d="M2.29504 37.3753L2.75173 37.4779C2.00836 40.7886 1.94548 41.6129 1.94029 48.9076C1.93789 52.2217 1.93842 53.9036 1.9744 54.8362C1.99242 55.3031 2.01867 55.5562 2.05125 55.7217C2.08053 55.8703 2.11555 55.9542 2.17942 56.0923L1.72562 56.3022L2.17943 56.0923C2.5 56.7854 3.19586 57.4813 3.88895 57.8019L3.88899 57.8019L4.41651 58.0459H34.9998H65.5831L66.1106 57.8019L66.3166 58.247L66.1107 57.8019C66.8038 57.4813 67.4996 56.7854 67.8202 56.0923L68.274 56.3022L67.8202 56.0923C67.8843 55.9539 67.9192 55.8705 67.9483 55.7216C67.9809 55.5556 68.007 55.301 68.0248 54.83C68.0603 53.8896 68.0597 52.1907 68.0552 48.8396C68.0453 41.2914 67.9502 40.1986 67.0621 36.7251C65.0363 28.8019 60.1468 21.9226 53.2526 17.3024C51.5003 16.1282 48.3535 14.5356 46.2458 13.7581L46.4188 13.289L46.2458 13.7581C44.6233 13.1595 41.759 12.4355 39.8459 12.1421L2.29504 37.3753ZM2.29504 37.3753L2.75174 37.4779C4.89172 27.9459 11.5667 19.5248 20.3787 15.2415C24.4077 13.2832 27.3035 12.4678 32.3229 11.887L2.29504 37.3753ZM65.3954 57.1914C65.8614 57.0839 66.3071 56.7976 66.652 56.4221L67.1057 55.928L67.239 55.7829L67.2374 55.5858L67.1795 48.2456C67.1267 41.5759 67.0988 40.7444 66.8322 39.3779C66.1659 35.9598 65.3959 33.6318 63.9572 30.6929C58.0171 18.5588 45.484 11.5487 31.8885 12.7461C25.8623 13.2768 19.4082 15.9239 14.654 19.8114L14.9397 20.1608L14.654 19.8114C9.14269 24.3182 5.20414 30.6073 3.56944 37.5128L4.0261 37.6209L3.56943 37.5128C2.86554 40.4866 2.78107 41.7973 2.78107 48.9846V55.6104V55.8052L2.9128 55.9486L3.35713 56.4325L3.35721 56.4326C3.69493 56.8002 4.14365 57.085 4.6041 57.1914L4.60417 57.1914C4.66105 57.2045 4.72767 57.2088 4.75794 57.2107L4.76093 57.2109C4.80709 57.2139 4.86562 57.2166 4.93414 57.2192C5.07186 57.2243 5.26205 57.2292 5.49965 57.2338C5.97549 57.2431 6.65029 57.2517 7.49456 57.2596C9.18355 57.2755 11.5563 57.2887 14.3842 57.2992C20.0402 57.3204 27.5202 57.3309 34.9998 57.3309C42.4795 57.3309 49.9594 57.3204 55.6155 57.2992C58.4434 57.2887 60.8161 57.2755 62.5051 57.2596C63.3493 57.2517 64.0241 57.2431 64.5 57.2338C64.7376 57.2292 64.9278 57.2243 65.0655 57.2192C65.134 57.2166 65.1925 57.2139 65.2387 57.2109L65.2417 57.2107C65.2719 57.2088 65.3385 57.2045 65.3954 57.1914ZM65.3954 57.1914L65.283 56.7042M65.3954 57.1914C65.3954 57.1914 65.3954 57.1914 65.3955 57.1914L65.283 56.7042M65.283 56.7042C64.5509 56.8732 5.44874 56.8732 4.71661 56.7042M65.283 56.7042C65.6327 56.6235 65.9935 56.3999 66.2837 56.0839L66.7374 55.5898L66.6795 48.2495C66.6266 41.5555 66.5969 40.7829 66.3415 39.4737C65.6829 36.0956 64.9263 33.8097 63.5081 30.9127C57.6603 18.9671 45.3248 12.0647 31.9324 13.2442C26.0078 13.7659 19.6484 16.3734 14.9705 20.1985C9.54388 24.636 5.66531 30.8298 4.05599 37.628C3.36693 40.5391 3.28107 41.7972 3.28107 48.9846L4.71661 56.7042M4.71661 56.7042C4.37031 56.6242 4.00677 56.4005 3.7254 56.0943L4.71661 56.7042ZM55.9722 46.4662L55.9723 46.4664C55.9901 46.5132 56.0038 46.5289 56.038 46.5499C56.0935 46.584 56.2151 46.6332 56.4785 46.6727C57.0097 46.7523 57.9104 46.7667 59.485 46.7422C60.7678 46.7223 61.456 46.7049 61.8574 46.6657C62.0567 46.6462 62.1524 46.6239 62.2015 46.6068C62.2335 46.5956 62.2443 46.5882 62.2673 46.5674L55.9722 46.4662ZM55.9722 46.4662C55.9375 46.3751 55.9381 46.2562 55.9811 46.1447C56.0183 46.0483 56.0733 45.9911 56.1185 45.964C56.1241 45.9632 56.1308 45.9622 56.1387 45.9612C56.1859 45.955 56.2544 45.9484 56.3452 45.9418C56.5259 45.9287 56.7737 45.9173 57.0729 45.9084C57.67 45.8907 58.4551 45.8836 59.2826 45.8917C60.6727 45.9051 61.4124 45.9182 61.8391 45.9555C62.0518 45.9741 62.1522 45.9963 62.2028 46.0134C62.2342 46.024 62.2433 46.0303 62.2672 46.0519L62.555 45.7343M55.9722 46.4662L62.555 45.7343M62.555 45.7343L62.2672 46.0519M62.555 45.7343L62.2672 46.0519M24.3691 19.7223C24.316 19.7835 24.2979 19.8296 24.2918 19.8503C24.2934 19.8573 24.2956 19.8662 24.2984 19.8771C24.3114 19.9271 24.3324 19.9972 24.3622 20.0878C24.4214 20.2682 24.5082 20.5084 24.6157 20.7911C24.8303 21.3554 25.1207 22.0714 25.4206 22.7819C25.7206 23.4924 26.0281 24.1925 26.2767 24.7254C26.4013 24.9926 26.5087 25.2126 26.5916 25.3692C26.6265 25.4351 26.6546 25.4851 26.6759 25.5205C26.6965 25.5297 26.7211 25.5391 26.748 25.5477C26.8082 25.5667 26.856 25.5738 26.879 25.575C26.8843 25.5737 26.9042 25.5684 26.9392 25.5503C26.9906 25.5236 27.0509 25.4809 27.1086 25.4265C27.1665 25.3719 27.21 25.3166 27.2359 25.2723C27.2375 25.2695 27.2391 25.2668 27.2405 25.2643C27.2284 25.2263 27.2119 25.1776 27.1908 25.1176C27.135 24.9589 27.0536 24.741 26.9531 24.4805C26.7526 23.9606 26.4815 23.2842 26.201 22.6006C25.9204 21.917 25.6316 21.229 25.3958 20.6859C25.2779 20.4141 25.1741 20.1809 25.0919 20.0035C25.0507 19.9147 25.016 19.8423 24.9883 19.7872C24.9745 19.7597 24.9633 19.7382 24.9545 19.7221L24.3691 19.7223ZM24.3691 19.7223C24.439 19.6417 24.5331 19.5792 24.6213 19.5516M24.3691 19.7223L24.6213 19.5516M24.6213 19.5516C24.7083 19.5245 24.8458 19.5523 24.9424 19.7007L24.6213 19.5516ZM62.2672 46.0519C62.4165 46.1872 62.4165 46.4321 62.2673 46.5673L62.2672 46.0519ZM17.6838 28.0814L17.6837 28.0813C17.0575 27.4559 16.5861 26.9786 16.2397 26.6037C15.8877 26.2226 15.6905 25.9742 15.5907 25.8031C15.5549 25.7415 15.5387 25.7023 15.5317 25.6802C15.55 25.6584 15.5972 25.6084 15.7112 25.5187C15.7905 25.4564 15.8526 25.4264 15.8917 25.4139C15.9245 25.4389 15.9666 25.4726 16.0185 25.5156C16.1569 25.6306 16.3444 25.7958 16.5691 26.001C17.0174 26.4106 17.5999 26.9667 18.207 27.5698L18.207 27.5698C18.8021 28.1608 19.2517 28.6144 19.5846 28.9734C19.9222 29.3374 20.1171 29.5804 20.221 29.7528C20.282 29.8543 20.2961 29.9058 20.2989 29.9241C20.2927 29.9371 20.2647 29.986 20.1541 30.0967C20.0927 30.158 20.056 30.1873 20.0376 30.2006C20.0133 30.1923 19.9657 30.1719 19.8876 30.1223C19.7162 30.0136 19.4731 29.814 19.1068 29.4729C18.7454 29.1362 18.2855 28.6824 17.6838 28.0814ZM15.5267 25.6572C15.5269 25.6573 15.5274 25.6596 15.5273 25.6635C15.5265 25.6591 15.5265 25.6571 15.5267 25.6572ZM20.2994 29.9322C20.2993 29.9321 20.2991 29.9305 20.2994 29.9275C20.2997 29.9308 20.2996 29.9322 20.2994 29.9322ZM20.058 30.2059C20.058 30.2059 20.0573 30.2059 20.0557 30.2056L20.058 30.2059ZM37.8169 41.0672L38.1334 41.2133L38.3799 40.9669L45.2437 34.1081C47.6105 31.7431 49.3458 30.0315 50.5134 28.9119C51.098 28.3514 51.536 27.9434 51.838 27.677C51.9709 27.5598 52.0722 27.4748 52.1451 27.4177C52.197 27.4382 52.2557 27.4739 52.3123 27.5292C52.3846 27.5997 52.4212 27.6705 52.436 27.7233C52.4111 27.7641 52.3678 27.8268 52.2954 27.9188C52.1209 28.1405 51.8212 28.4777 51.328 28.9988C50.3451 30.0372 48.6379 31.7601 45.7401 34.6592L46.0937 35.0127L45.7401 34.6592L38.8898 41.5128L38.6364 41.7663L38.7951 42.0877L39.1328 42.7713L39.1329 42.7713C40.0081 44.5427 39.7329 46.5347 38.4283 47.9621L38.4282 47.9621C37.45 49.0325 36.4056 49.4969 34.9998 49.4969C33.594 49.4969 32.5496 49.0325 31.5714 47.9621L31.5714 47.9621C31.138 47.488 30.8517 47.0431 30.6703 46.5651C30.4885 46.0862 30.402 45.5478 30.402 44.8741C30.402 43.0135 31.3208 41.5417 33.0068 40.7117C33.4228 40.5069 33.6259 40.4218 33.8557 40.3753C34.0975 40.3263 34.3913 40.3155 34.9969 40.3155C35.5751 40.3155 35.8827 40.3282 36.1342 40.3745C36.3732 40.4186 36.5812 40.4967 36.953 40.6684L36.953 40.6684L37.8169 41.0672ZM52.4598 27.6794C52.4598 27.6795 52.4593 27.6809 52.458 27.6836C52.4591 27.6806 52.4598 27.6792 52.4598 27.6794ZM9.82934 34.2712L9.82939 34.2711C9.89843 34.2168 9.96694 34.1678 10.0248 34.1298C10.0519 34.1395 10.0825 34.1506 10.1164 34.1632C10.2813 34.2242 10.5085 34.3131 10.7796 34.4222C11.3207 34.6399 12.0246 34.9332 12.7299 35.2333C13.4351 35.5334 14.139 35.8393 14.6799 36.082C14.9509 36.2036 15.1782 36.3081 15.3435 36.3876C15.4266 36.4276 15.4902 36.4594 15.5345 36.4829C15.5468 36.4894 15.556 36.4945 15.5628 36.4983C15.6295 36.568 15.6594 36.6853 15.6047 36.8297C15.5494 36.9757 15.4445 37.0496 15.3407 37.0587C15.3335 37.0571 15.3232 37.0547 15.3095 37.0512C15.2624 37.0393 15.1959 37.0199 15.1096 36.9923C14.9379 36.9373 14.7086 36.8567 14.4378 36.7566C13.8975 36.5568 13.2093 36.2859 12.5211 36.0042C11.8329 35.7224 11.1492 35.4317 10.6177 35.1927C10.3514 35.073 10.1274 34.968 9.96154 34.8847C9.8783 34.8429 9.81416 34.8087 9.76862 34.7825C9.74519 34.769 9.73171 34.7604 9.72549 34.7564C9.68071 34.7107 9.65505 34.6441 9.66334 34.5576C9.6724 34.4633 9.72344 34.3545 9.82934 34.2712ZM9.89245 34.086C9.893 34.0862 9.8938 34.0864 9.89488 34.0867C9.88703 34.085 9.88551 34.0843 9.89245 34.086ZM9.73505 34.7656L9.73498 34.7655L9.73505 34.7656ZM57.1645 35.2632L57.1645 35.2632C57.9445 34.9378 58.6698 34.6412 59.2096 34.4255C59.4799 34.3175 59.7018 34.2306 59.8601 34.1707C59.8991 34.156 59.9335 34.1432 59.9632 34.1323C60.0251 34.1667 60.0998 34.2157 60.1702 34.2711L60.1703 34.2712C60.2762 34.3545 60.3272 34.4633 60.3363 34.5576C60.3446 34.6443 60.3188 34.711 60.2738 34.7568C60.2677 34.7607 60.254 34.7695 60.2297 34.7835C60.1839 34.8099 60.1196 34.8442 60.0362 34.8862C59.8699 34.9698 59.6456 35.0749 59.3791 35.1948C58.847 35.434 58.1629 35.7245 57.4742 36.0059C56.7854 36.2873 56.0967 36.5577 55.5554 36.7571C55.2841 36.857 55.0543 36.9374 54.882 36.9922C54.7954 37.0197 54.7286 37.0391 54.6811 37.051C54.6668 37.0546 54.6562 37.057 54.6488 37.0586C54.6155 37.0557 54.567 37.046 54.5147 37.0269C54.4849 37.016 54.4608 37.0045 54.4441 36.9949C54.4399 36.9925 54.4367 36.9905 54.4343 36.9889C54.43 36.9822 54.4208 36.9663 54.4103 36.9377C54.3939 36.8924 54.3806 36.8319 54.3757 36.7625C54.3686 36.6614 54.381 36.5783 54.3973 36.5224C54.4264 36.5056 54.4634 36.4852 54.5091 36.461C54.6583 36.3819 54.8725 36.2767 55.1386 36.1521C55.6694 35.9037 56.3878 35.5871 57.1645 35.2632ZM60.079 34.0919C60.0893 34.0888 60.0874 34.0899 60.0772 34.0924C60.0779 34.0922 60.0785 34.092 60.079 34.0919ZM37.5811 47.7524L37.5812 47.7524C38.2236 47.2099 38.6151 46.3989 38.7539 45.5697C38.893 44.7396 38.7881 43.8369 38.3702 43.0915C37.4183 41.3935 35.5083 40.6038 33.7255 41.2411C31.588 42.0051 30.5529 44.5862 31.5675 46.6176C32.6974 48.8801 35.6294 49.4003 37.5811 47.7524ZM14.0274 46.4663L14.0274 46.4664C14.0096 46.5132 13.9959 46.5289 13.9617 46.5499C13.9061 46.584 13.7845 46.6332 13.5212 46.6727C12.99 46.7523 12.0893 46.7667 10.5147 46.7422C9.23181 46.7223 8.54361 46.7049 8.14228 46.6657C7.94296 46.6462 7.84722 46.6239 7.79816 46.6068C7.76609 46.5956 7.75533 46.5882 7.73233 46.5673L7.39658 46.9378L7.73233 46.5673C7.61926 46.4649 7.59819 46.3503 7.62591 46.2461C7.6546 46.1384 7.74857 46.0059 7.94292 45.9274C7.95021 45.9263 7.96139 45.9247 7.97711 45.9229C8.02467 45.9173 8.09243 45.9115 8.18098 45.9059C8.35719 45.8949 8.59544 45.8859 8.87836 45.8791C9.44304 45.8657 10.169 45.8616 10.8971 45.8659C11.6252 45.8703 12.3511 45.8832 12.9157 45.9034C13.1986 45.9135 13.4368 45.9254 13.613 45.9386C13.7016 45.9452 13.7693 45.9518 13.8169 45.958C13.8312 45.9598 13.8416 45.9614 13.8489 45.9626C13.9981 46.0338 14.1078 46.2549 14.0274 46.4663ZM32.3229 11.887C32.8239 11.829 34.3552 11.8386 35.9752 11.8931C37.5877 11.9473 39.1987 12.0429 39.8459 12.1421L32.3229 11.887ZM34.5684 21.0975C34.5454 19.6154 34.5471 18.764 34.592 18.2432C34.6361 17.7318 34.7151 17.6529 34.7519 17.6162L34.753 17.6152C34.753 17.6152 34.7701 17.6006 34.817 17.5854C34.8658 17.5696 34.9296 17.5591 34.9998 17.5591C35.07 17.5591 35.1338 17.5696 35.1826 17.5854C35.2295 17.6006 35.2466 17.6152 35.2467 17.6152L35.2477 17.6162C35.2845 17.6529 35.3636 17.7318 35.4076 18.2432C35.4525 18.764 35.4542 19.6154 35.4312 21.0975C35.4119 22.3473 35.3947 23.018 35.3556 23.4101C35.3363 23.6045 35.3141 23.6978 35.2973 23.7456C35.2863 23.7769 35.2787 23.7881 35.2574 23.8116C35.243 23.8274 35.1984 23.8633 35.1281 23.8955C35.0958 23.9103 35.0652 23.9209 35.0396 23.9275C35.0141 23.934 35.0009 23.9346 34.9999 23.9346L34.9998 23.9346C35.0002 23.9346 34.9869 23.9343 34.9601 23.9275C34.9344 23.9209 34.9038 23.9103 34.8716 23.8955C34.8012 23.8633 34.7566 23.8274 34.7422 23.8116C34.721 23.7881 34.7133 23.7769 34.7023 23.7456C34.6855 23.6978 34.6634 23.6045 34.644 23.4101C34.6049 23.018 34.5878 22.3473 34.5684 21.0975ZM27.2607 25.3328C27.262 25.3383 27.2614 25.3371 27.2602 25.3308C27.2604 25.3317 27.2606 25.3324 27.2607 25.3328Z" fill="white" stroke="white"/>
</g>
</svg>
