<svg width="31" height="29" viewBox="0 0 31 29" fill="none" xmlns="http://www.w3.org/2000/svg">
<path fill-rule="evenodd" clip-rule="evenodd" d="M22.6006 0.833252C27.3181 0.833252 30.8753 4.68234 30.8753 9.78658V19.5163C30.8753 22.1286 29.9517 24.4888 28.2729 26.1632C26.767 27.6635 24.8134 28.4583 22.6232 28.4583H8.66482C6.47891 28.4583 4.52674 27.6649 3.01941 26.1632C1.34066 24.4888 0.416992 22.1286 0.416992 19.5163V9.78658C0.416992 4.68234 3.97424 0.833252 8.69174 0.833252H22.6006ZM22.6006 2.95825H8.69174C5.12883 2.95825 2.54199 5.82984 2.54199 9.78658V19.5163C2.54199 21.5605 3.24466 23.3866 4.51966 24.6573C5.61899 25.7553 7.05408 26.3333 8.66908 26.3333H22.6006C22.6034 26.3304 22.6147 26.3333 22.6232 26.3333C24.2397 26.3333 25.6733 25.7553 26.7727 24.6573C28.0491 23.3866 28.7503 21.5605 28.7503 19.5163V9.78658C28.7503 5.82984 26.1635 2.95825 22.6006 2.95825ZM24.8332 9.51572C25.203 9.97047 25.1336 10.6391 24.6788 11.0103L18.3832 16.1273C17.587 16.7591 16.635 17.0751 15.6844 17.0751C14.7367 17.0751 13.7917 16.762 13.0012 16.1358L6.64749 11.0131C6.18991 10.6448 6.11907 9.97472 6.48599 9.51855C6.85574 9.0638 7.52441 8.99155 7.98058 9.35847L14.3287 14.4755C15.1262 15.1073 16.2497 15.1073 17.0529 14.4698L23.3372 9.3613C23.7934 8.98872 24.4621 9.05955 24.8332 9.51572Z" fill="#D9D9D9"/>
</svg>
