<svg width="32" height="32" viewBox="0 0 32 32" fill="none" xmlns="http://www.w3.org/2000/svg">
<path fill-rule="evenodd" clip-rule="evenodd" d="M30.6346 1.36504C30.751 1.48115 30.8434 1.61909 30.9064 1.77095C30.9694 1.92282 31.0019 2.08562 31.0019 2.25004C31.0019 2.41446 30.9694 2.57726 30.9064 2.72912C30.8434 2.88098 30.751 3.01892 30.6346 3.13504L3.13463 30.635C2.89991 30.8698 2.58157 31.0016 2.24963 31.0016C1.91769 31.0016 1.59934 30.8698 1.36463 30.635C1.12991 30.4003 0.998047 30.082 0.998047 29.75C0.998047 29.4181 1.12991 29.0998 1.36463 28.865L28.8646 1.36504C28.9807 1.24863 29.1187 1.15627 29.2705 1.09326C29.4224 1.03024 29.5852 0.997803 29.7496 0.997803C29.914 0.997803 30.0768 1.03024 30.2287 1.09326C30.3806 1.15627 30.5185 1.24863 30.6346 1.36504Z" fill="white"/>
<path fill-rule="evenodd" clip-rule="evenodd" d="M1.36528 1.36504C1.24887 1.48115 1.15652 1.61909 1.0935 1.77095C1.03048 1.92282 0.998047 2.08562 0.998047 2.25004C0.998047 2.41446 1.03048 2.57726 1.0935 2.72912C1.15652 2.88098 1.24887 3.01892 1.36528 3.13504L28.8653 30.635C29.1 30.8698 29.4183 31.0016 29.7503 31.0016C30.0822 31.0016 30.4006 30.8698 30.6353 30.635C30.87 30.4003 31.0019 30.082 31.0019 29.75C31.0019 29.4181 30.87 29.0998 30.6353 28.865L3.13528 1.36504C3.01917 1.24863 2.88123 1.15627 2.72937 1.09326C2.5775 1.03024 2.4147 0.997803 2.25028 0.997803C2.08586 0.997803 1.92306 1.03024 1.7712 1.09326C1.61933 1.15627 1.4814 1.24863 1.36528 1.36504Z" fill="white"/>
</svg>
