<svg width="1318" height="379" viewBox="0 0 1318 379" fill="none" xmlns="http://www.w3.org/2000/svg">
<path fill-rule="evenodd" clip-rule="evenodd" d="M410.372 236.987H211.427L296.638 183.344L298.557 186.475L319.088 173.549C320.454 173.953 321.898 174.171 323.393 174.171C324.888 174.171 326.333 173.952 327.699 173.547L348.231 186.475L349.447 184.49C354.837 188.044 360.202 191.675 365.022 195.266C371.341 199.975 373.787 208.217 371.446 215.531L410.372 236.987ZM355.307 174.932L357.232 171.791L338.623 160.074C338.664 159.612 338.685 159.146 338.685 158.674C338.685 153.316 336.001 148.592 331.922 145.809V122.847H328.142L329.201 103.482C329.639 95.518 335.128 88.9173 342.477 86.9191L338.603 22.9647L434.296 226.277L355.307 174.932ZM318.79 122.847H314.865V145.809C310.785 148.592 308.101 153.315 308.101 158.674C308.101 159.146 308.123 159.613 308.164 160.075L289.556 171.791L291.284 174.612L275.472 185.061C268.842 189.092 260.513 188.305 254.748 183.442L221.537 207.005L318.79 0V122.847Z" fill="#E74B23"/>
<path fill-rule="evenodd" clip-rule="evenodd" d="M1317.14 236.986H1271.53V1.98364H1317.14V236.986Z" fill="#D9D9D9" fill-opacity="0.75"/>
<path fill-rule="evenodd" clip-rule="evenodd" d="M1226.81 236.986H1100.42V1.98364H1146.03V196.535H1226.81V236.986Z" fill="#D9D9D9" fill-opacity="0.75"/>
<path fill-rule="evenodd" clip-rule="evenodd" d="M1038 236.986H904.057V1.98364H1038V42.4346H949.673V92.5172H1028.29V131.043H949.673V196.535H1038V236.986Z" fill="#D9D9D9" fill-opacity="0.75"/>
<path fill-rule="evenodd" clip-rule="evenodd" d="M834.995 236.986H789.38V131.043H690.543V236.986H644.926V1.98364H690.543V91.5543H789.38V1.98364H834.995V236.986Z" fill="#D9D9D9" fill-opacity="0.75"/>
<path fill-rule="evenodd" clip-rule="evenodd" d="M598.979 2.03369L500.213 236.986L401.754 2.03369H450.169L500.213 134.841L550.564 2.03369H598.979Z" fill="#D9D9D9"/>
<path fill-rule="evenodd" clip-rule="evenodd" d="M178.936 150.697C178.936 175.253 171.069 195.749 155.283 212.176C138.757 229.405 117.058 238.02 90.184 238.02C63.257 238.02 41.5579 229.405 25.032 212.176C9.35121 195.856 1.53711 175.363 1.53711 150.697V2.03369H47.154V150.697C47.154 164.873 50.7449 176.005 57.9779 184.084C65.5279 192.432 76.2462 196.605 90.184 196.605C104.069 196.605 114.84 192.432 122.496 184.084C129.729 175.898 133.319 164.768 133.319 150.697V2.03369H178.936V150.697Z" fill="#D9D9D9"/>
<path fill-rule="evenodd" clip-rule="evenodd" d="M33.8509 376.613H26.6402L5.61556 352.652V376.613H0V329.905H5.61556V351.28L26.3 329.905H33.3085L11.3581 352.046L33.8509 376.613ZM85.5254 362.245C85.5254 366.668 84.1212 370.157 81.3239 372.72C78.4531 375.315 74.433 376.613 69.2645 376.613H56.4921V329.905H82.6647V334.946H62.1714V348.09H69.2752C74.4861 348.09 78.4955 349.324 81.3032 351.802C84.1212 354.268 85.5254 357.757 85.5254 362.245ZM79.7184 362.255C79.7184 356.087 76.1561 353.003 69.0202 353.003H62.1714V371.635H69.0202C76.1561 371.635 79.7184 368.508 79.7184 362.255ZM170.774 362.245C170.774 366.668 169.369 370.157 166.572 372.72C163.701 375.315 159.681 376.613 154.513 376.613H141.74V329.905H167.913V334.946H147.42V348.09H154.523C159.734 348.09 163.744 349.324 166.552 351.802C169.369 354.268 170.774 357.757 170.774 362.245ZM164.966 362.255C164.966 356.087 161.405 353.003 154.268 353.003H147.42V371.635H154.268C161.405 371.635 164.966 368.508 164.966 362.255ZM222.172 376.612H196.679V329.904H222.172V334.882H202.359V348.728H220.831V353.641H202.359V371.571H222.172V376.612ZM286.364 373.389C282.29 376.432 277.047 377.952 270.635 377.952C263.552 377.952 257.735 375.56 253.183 370.784C248.738 366.116 246.515 360.267 246.515 353.227C246.515 346.399 248.855 340.571 253.545 335.743C258.225 330.914 263.967 328.501 270.752 328.501C276.942 328.501 282.152 330.053 286.364 333.147V339.656C281.919 335.668 276.707 333.669 270.752 333.669C265.86 333.669 261.585 335.615 257.905 339.518C254.225 343.421 252.386 347.994 252.386 353.237C252.386 358.682 254.087 363.276 257.501 367.03C260.989 370.87 265.381 372.783 270.688 372.783C276.505 372.783 281.727 370.816 286.364 366.892V373.389ZM347.652 376.612H342.038V334.945H317.471V376.612H311.792V329.904H347.652V376.612ZM409.909 376.612H404.294V341.57L372.836 378.324V329.904H378.451V364.988L409.909 328.246V376.612ZM470.135 376.612H464.456V334.818H447.099V360.787C447.099 366.924 446.366 371.188 444.888 373.581C443.409 375.984 440.793 377.187 437.029 377.187C435.752 377.187 434.433 376.995 433.062 376.623V371.507C434.21 371.975 435.411 372.209 436.667 372.209C438.602 372.209 439.932 371.422 440.623 369.859C441.324 368.285 441.676 365.243 441.676 360.713V329.904H470.135V376.612ZM546.566 353.237C546.566 360.447 544.142 366.402 539.281 371.092C534.527 375.708 528.625 378.016 521.586 378.016C514.546 378.016 508.664 375.708 503.921 371.092C499.082 366.402 496.668 360.447 496.668 353.237C496.668 346.037 499.082 340.081 503.921 335.391C508.664 330.798 514.546 328.501 521.586 328.501C528.625 328.501 534.527 330.798 539.281 335.391C544.142 340.081 546.566 346.037 546.566 353.237ZM540.568 353.237C540.568 347.516 538.771 342.826 535.166 339.157C531.561 335.498 527.031 333.669 521.586 333.669C516.162 333.669 511.652 335.498 508.058 339.157C504.463 342.826 502.666 347.516 502.666 353.237C502.666 358.927 504.474 363.616 508.079 367.307C511.684 370.997 516.183 372.847 521.586 372.847C527.009 372.847 531.529 370.997 535.144 367.307C538.76 363.616 540.568 358.927 540.568 353.237ZM599.113 334.945H586.309V376.612H580.63V334.945H567.804V329.904H599.113V334.945ZM659.084 376.612H653.468V353.641H628.328V376.612H622.648V329.904H628.328V348.664H653.468V329.904H659.084V376.612ZM723.424 376.612H717.745V329.904H723.424V376.612ZM713.023 362.276C713.023 366.531 711.705 369.933 709.067 372.465C706.174 375.229 701.984 376.612 696.497 376.612H684.309V329.904H689.989V348.281H696.508C701.932 348.281 706.036 349.483 708.833 351.897C711.63 354.311 713.023 357.768 713.023 362.276ZM707.153 362.276C707.153 356.225 703.526 353.194 696.263 353.194H689.989V371.699H696.263C700.177 371.699 703.005 370.88 704.749 369.232C706.356 367.732 707.153 365.414 707.153 362.276ZM774.141 376.612H748.649V329.904H774.141V334.882H754.329V348.728H772.801V353.641H754.329V371.571H774.141V376.612ZM860.761 362.968C860.761 367.179 859.326 370.508 856.465 372.954C853.594 375.389 849.638 376.612 844.586 376.612H831.154V329.904H842.289C852.264 329.904 857.252 333.701 857.252 341.304C857.252 343.527 856.721 345.527 855.646 347.303C854.572 349.079 853.158 350.333 851.403 351.056C851.381 351.078 851.361 351.11 851.339 351.152C854.338 351.918 856.657 353.343 858.294 355.428C859.943 357.502 860.761 360.012 860.761 362.968ZM851.445 341.73C851.445 337.168 848.542 334.882 842.747 334.882H836.77V349.238H843.119C846.107 349.238 848.255 348.6 849.563 347.334C850.819 346.154 851.445 344.282 851.445 341.73ZM854.699 362.957C854.699 357.044 851.297 354.088 844.502 354.088H836.77V371.635H844.374C851.254 371.635 854.699 368.743 854.699 362.957ZM912.299 376.612H886.807V329.904H912.299V334.882H892.486V348.728H910.958V353.641H892.486V371.571H912.299V376.612ZM967.462 343.421C967.462 347.314 966.217 350.419 963.718 352.737C961.081 355.215 957.348 356.449 952.509 356.449H944.746V376.612H939.13V329.904H952.212C957.125 329.904 960.911 331.116 963.569 333.552C966.164 335.913 967.462 339.21 967.462 343.421ZM961.656 343.208C961.656 337.572 958.347 334.754 951.733 334.754H944.746V351.663H951.552C958.284 351.663 961.656 348.845 961.656 343.208ZM1019.18 334.945H1006.38V376.612H1000.7V334.945H987.87V329.904H1019.18V334.945ZM1090.25 353.237C1090.25 360.447 1087.83 366.402 1082.97 371.092C1078.21 375.708 1072.31 378.016 1065.27 378.016C1058.23 378.016 1052.35 375.708 1047.61 371.092C1042.77 366.402 1040.35 360.447 1040.35 353.237C1040.35 346.037 1042.77 340.081 1047.61 335.391C1052.35 330.798 1058.23 328.501 1065.27 328.501C1072.31 328.501 1078.21 330.798 1082.97 335.391C1087.83 340.081 1090.25 346.037 1090.25 353.237ZM1084.25 353.237C1084.25 347.516 1082.46 342.826 1078.85 339.157C1075.25 335.498 1070.72 333.669 1065.27 333.669C1059.85 333.669 1055.34 335.498 1051.74 339.157C1048.15 342.826 1046.35 347.516 1046.35 353.237C1046.35 358.927 1048.16 363.616 1051.77 367.307C1055.37 370.997 1059.87 372.847 1065.27 372.847C1070.7 372.847 1075.22 370.997 1078.83 367.307C1082.45 363.616 1084.25 358.927 1084.25 353.237ZM1148.18 376.612H1142.5V334.818H1125.15V360.787C1125.15 366.924 1124.41 371.188 1122.93 373.581C1121.46 375.984 1118.84 377.187 1115.07 377.187C1113.8 377.187 1112.48 376.995 1111.11 376.623V371.507C1112.26 371.975 1113.46 372.209 1114.71 372.209C1116.65 372.209 1117.98 371.422 1118.67 369.859C1119.37 368.285 1119.72 365.243 1119.72 360.713V329.904H1148.18V376.612ZM1198.82 376.612H1173.33V329.904H1198.82V334.882H1179.01V348.728H1197.48V353.641H1179.01V371.571H1198.82V376.612ZM1255.35 334.945H1242.54V376.612H1236.86V334.945H1224.04V329.904H1255.35V334.945ZM1318 376.612H1312.32V329.904H1318V376.612ZM1307.6 362.276C1307.6 366.531 1306.28 369.933 1303.64 372.465C1300.75 375.229 1296.56 376.612 1291.07 376.612H1278.88V329.904H1284.56V348.281H1291.08C1296.51 348.281 1300.61 349.483 1303.41 351.897C1306.2 354.311 1307.6 357.768 1307.6 362.276ZM1301.73 362.276C1301.73 356.225 1298.1 353.194 1290.84 353.194H1284.56V371.699H1290.84C1294.75 371.699 1297.58 370.88 1299.32 369.232C1300.93 367.732 1301.73 365.414 1301.73 362.276Z" fill="#D9D9D9"/>
</svg>
