<svg width="19" height="19" viewBox="0 0 19 19" fill="none" xmlns="http://www.w3.org/2000/svg">
<path d="M11.8167 3.87992C11.3935 3.80175 11.0049 4.07179 10.9243 4.48484C10.8438 4.89789 11.1147 5.30117 11.5263 5.382C12.7657 5.62361 13.7226 6.58295 13.9652 7.82654C14.0342 8.18452 14.3494 8.44567 14.7123 8.44567C14.761 8.44567 14.8097 8.44123 14.8593 8.43235C15.2709 8.34974 15.5418 7.94735 15.4612 7.53341C15.0992 5.67602 13.6695 4.24145 11.8167 3.87992Z" fill="#D9D9D9"/>
<path d="M11.7616 0.784881C11.5633 0.756456 11.3641 0.815082 11.2057 0.941218C11.0428 1.06913 10.941 1.25389 10.9189 1.46086C10.872 1.87924 11.1738 2.25765 11.5917 2.30473C14.4731 2.62628 16.7128 4.87096 17.0368 7.76142C17.0802 8.14871 17.4051 8.44096 17.7928 8.44096C17.822 8.44096 17.8503 8.43918 17.8796 8.43563C18.0823 8.41342 18.2629 8.31304 18.3903 8.15315C18.5169 7.99326 18.5745 7.79429 18.5515 7.59087C18.1478 3.98446 15.3566 1.18549 11.7616 0.784881Z" fill="#D9D9D9"/>
<path fill-rule="evenodd" clip-rule="evenodd" d="M8.80556 10.5311C12.3514 14.076 13.1558 9.97494 15.4135 12.231C17.59 14.407 18.841 14.8429 16.0833 17.5998C15.7379 17.8774 13.5432 21.2172 5.83032 13.5065C-1.88353 5.79475 1.45431 3.59781 1.73198 3.25248C4.49634 0.487944 4.92478 1.7462 7.10134 3.92215C9.359 6.17919 5.25971 6.98623 8.80556 10.5311Z" fill="#D9D9D9"/>
</svg>
