<svg width="23" height="23" viewBox="0 0 23 23" fill="none" xmlns="http://www.w3.org/2000/svg">
<path fill-rule="evenodd" clip-rule="evenodd" d="M6.28788 6.02125C6.75362 6.02125 7.13163 6.41325 7.13163 6.89625C7.13163 7.37925 6.75362 7.77125 6.28788 7.77125H5.22925C3.4135 7.77125 1.9375 9.30075 1.9375 11.1826V16.8818C1.9375 18.7706 3.418 20.3059 5.23938 20.3059H17.7719C19.5854 20.3059 21.0625 18.7741 21.0625 16.8934V11.1954C21.0625 9.30658 19.5809 7.77125 17.7617 7.77125H16.7132C16.2475 7.77125 15.8695 7.37925 15.8695 6.89625C15.8695 6.41325 16.2475 6.02125 16.7132 6.02125H17.7617C20.5124 6.02125 22.75 8.34292 22.75 11.1954V16.8934C22.75 19.7401 20.5157 22.0559 17.7719 22.0559H5.23938C2.48875 22.0559 0.25 19.7354 0.25 16.8818V11.1826C0.25 8.33592 2.48313 6.02125 5.22925 6.02125H6.28788ZM11.5009 0.5C11.9667 0.5 12.3447 0.892 12.3447 1.375L12.3438 13.3053L14.184 11.3897C14.5125 11.0467 15.0458 11.0467 15.3765 11.3873C15.7062 11.728 15.7073 12.2822 15.3788 12.6252L12.1059 16.0326C12.0739 16.0667 12.0393 16.0981 12.0024 16.1264L12.0983 16.04C12.062 16.0781 12.0227 16.1123 11.9809 16.1424C11.9554 16.1607 11.9295 16.1772 11.9027 16.1923C11.8898 16.1996 11.8762 16.2068 11.8625 16.2135C11.8379 16.2256 11.8128 16.2366 11.787 16.2462C11.7741 16.2509 11.7612 16.2554 11.7482 16.2595C11.7165 16.2697 11.6839 16.2779 11.6506 16.2841C11.6431 16.2854 11.6363 16.2865 11.6295 16.2876C11.6026 16.292 11.5746 16.295 11.5463 16.2966C11.531 16.2974 11.516 16.2978 11.5009 16.2978L11.4561 16.2943L11.3865 16.2898C11.3815 16.2891 11.3765 16.2884 11.3716 16.2876L11.5009 16.2978C11.4506 16.2978 11.4007 16.2932 11.3518 16.2841C11.318 16.2779 11.2855 16.2697 11.2538 16.2597C11.2411 16.2555 11.2287 16.2512 11.2163 16.2467C11.1905 16.2371 11.1649 16.2261 11.1401 16.2139C11.125 16.2065 11.11 16.1986 11.0952 16.1901C11.0744 16.1782 11.0543 16.1656 11.0349 16.1522C11.0216 16.1431 11.0082 16.1333 10.9951 16.1231C10.963 16.0981 10.9327 16.0708 10.9044 16.0415L10.9035 16.04L7.62302 12.6252C7.29453 12.2822 7.29565 11.728 7.62528 11.3873C7.95603 11.0467 8.48927 11.0467 8.81778 11.3897L10.6562 13.3053L10.6572 1.375C10.6572 0.892 11.0352 0.5 11.5009 0.5Z" fill="#606060"/>
</svg>
