<svg width="70" height="70" viewBox="0 0 70 70" fill="none" xmlns="http://www.w3.org/2000/svg">
<g opacity="0.4">
<mask id="path-1-inside-1_703_349" fill="white">
<path fill-rule="evenodd" clip-rule="evenodd" d="M33.3411 1.50788C28.1804 2.08866 23.7654 5.20311 21.4698 9.88204C20.1843 12.5024 19.8272 14.5588 19.8268 19.3461C19.8263 23.4171 20.223 26.3784 20.8634 27.086C21.1964 27.4541 21.8404 27.379 22.1675 26.934C22.4122 26.6011 22.4113 26.5636 22.1299 25.4985C21.8994 24.6252 21.8279 23.8628 21.7757 21.717L21.7101 19.0291L22.647 18.9388C25.7351 18.6413 28.391 17.344 30.9805 14.8684L32.2434 13.6612L32.6988 14.0541C35.7557 16.6924 40.7918 18.357 47.0807 18.8079L48.2921 18.8947L48.2258 21.7181C48.1707 24.0614 48.11 24.7097 47.8687 25.5309C47.7089 26.0751 47.5781 26.6963 47.5781 26.911C47.5781 27.7417 48.5959 28.0312 49.1012 27.3442C49.4672 26.8465 49.8866 25.0467 50.0398 23.3155C50.2141 21.346 50.21 17.3079 50.0315 15.2729C49.4962 9.17233 45.4779 4.09391 39.6436 2.14485C37.9203 1.56913 35.2209 1.29623 33.3411 1.50788ZM32.6588 3.41209C32.3111 3.47553 31.4029 3.74104 30.6404 4.00204C25.6143 5.72291 22.0754 10.3634 21.7799 15.6205L21.6972 17.0903H22.4478C24.1026 17.0903 26.3795 16.2148 28.1825 14.8854C28.6815 14.5175 29.7052 13.5711 30.4577 12.7822C31.3867 11.8083 31.9224 11.3481 32.1272 11.3481C32.3051 11.3481 32.7955 11.6841 33.3232 12.1677C35.4117 14.0815 38.4201 15.5299 41.8818 16.2883C43.5194 16.647 46.0092 16.9535 47.2859 16.9535H48.3028L48.2193 15.5522C48.0247 12.292 46.5525 9.18313 44.1165 6.88858C42.6406 5.49842 41.1266 4.5984 39.1238 3.92069C37.5779 3.3976 37.4646 3.37983 35.4101 3.33895C34.2446 3.31571 33.0064 3.34852 32.6588 3.41209ZM27.7502 20.8779C27.0441 21.3645 26.8221 22.0277 27.1237 22.7496C27.5145 23.6848 28.5018 24.046 29.399 23.5821C30.4037 23.0625 30.4614 21.5306 29.5015 20.8584C29.0987 20.5762 28.1728 20.5866 27.7502 20.8779ZM40.4984 20.8584C39.1792 21.7823 39.8437 23.7895 41.4688 23.7895C42.6205 23.7895 43.4322 22.224 42.7482 21.3223C42.2464 20.6609 41.1137 20.4273 40.4984 20.8584ZM9.36518 28.3523C8.54719 28.7376 7.79892 29.4421 7.44004 30.1652C7.21541 30.6176 7.17166 31.0596 7.13543 33.2335L7.09318 35.7732L6.44746 35.9387C5.09504 36.2853 3.67986 37.1342 2.76904 38.1449C2.21615 38.7587 1.63004 40.1155 1.47937 41.1307C0.997714 44.376 2.93174 47.2674 6.21244 48.2069L7.1007 48.4613L7.13912 54.0013C7.17521 59.1914 7.19463 59.5757 7.4466 60.0838C7.78225 60.7607 8.54254 61.5314 9.16461 61.8252C9.42533 61.9482 15.3448 63.5305 22.3193 65.341L34.9999 68.6332L47.6806 65.341C54.6549 63.5305 60.5745 61.9482 60.8353 61.8252C61.4573 61.5314 62.2176 60.7607 62.5533 60.0838C62.8052 59.5757 62.8247 59.1914 62.8608 54.0013L62.8992 48.4613L63.7874 48.2069C65.5668 47.6973 67.2403 46.374 67.9535 44.9125C68.7793 43.2205 68.7799 40.9738 67.955 39.2982C67.2087 37.7821 65.4252 36.4186 63.5649 35.9419L62.9067 35.7732L62.8644 33.2335C62.8282 31.0596 62.7845 30.6176 62.5598 30.1652C61.9648 28.9665 60.519 28.0316 59.2566 28.0291C58.725 28.028 55.8232 28.8931 46.8835 31.7174C40.4604 33.7467 35.1127 35.407 34.9999 35.407C34.8871 35.407 29.5395 33.7467 23.1163 31.7174C10.4097 27.7031 10.6298 27.7568 9.36518 28.3523ZM9.97521 30.1127C9.01176 30.5986 8.88707 30.9821 8.88693 33.4623L8.88666 35.5473H9.45568C10.2715 35.5473 11.1124 36.0779 11.4712 36.819C11.745 37.3848 11.7578 37.6186 11.7578 42.1098C11.7578 46.601 11.745 46.8348 11.4712 47.4005C11.1124 48.1417 10.2715 48.6723 9.45568 48.6723H8.88666V53.7019C8.88666 58.6459 8.89185 58.7419 9.19428 59.3415C9.4025 59.7544 9.65652 60.0225 9.98041 60.1712C10.3862 60.3575 33.6456 66.4494 33.9404 66.4467C33.9967 66.4461 34.0429 59.8367 34.0429 51.7591V37.0724L33.5986 36.9291C28.4837 35.2799 10.9682 29.8051 10.8069 29.8051C10.6849 29.8051 10.3107 29.9435 9.97521 30.1127ZM48.7402 33.0289C43.1757 34.7923 38.0232 36.4213 37.29 36.6491L35.957 37.063V51.7543C35.957 59.8346 36.003 66.4459 36.0595 66.4461C36.3596 66.4472 59.6157 60.3568 60.0195 60.1714C60.3432 60.0227 60.5975 59.7543 60.8056 59.3415C61.108 58.7419 61.1132 58.6459 61.1132 53.7019V48.6723H60.5442C59.7284 48.6723 58.8874 48.1417 58.5287 47.4005C58.2548 46.8348 58.2421 46.601 58.2421 42.1098C58.2421 37.6186 58.2548 37.3848 58.5287 36.819C58.8874 36.0779 59.7284 35.5473 60.5442 35.5473H61.1132V33.4601C61.1132 31.7055 61.0736 31.2973 60.8638 30.8967C60.6023 30.397 59.6461 29.7979 59.136 29.8139C58.9827 29.8186 54.3046 31.2654 48.7402 33.0289ZM7.53738 37.5353C5.58435 37.959 4.22496 38.9107 3.58949 40.2989C3.28666 40.9604 3.25603 41.1772 3.30853 42.2933C3.35242 43.228 3.44279 43.6907 3.66496 44.1187C4.31465 45.3705 5.72654 46.2931 7.59986 46.69C8.95557 46.9773 9.66336 46.9584 9.83891 46.6305C10.0311 46.2712 10.0311 37.9483 9.83891 37.589C9.66664 37.2672 8.85959 37.2485 7.53738 37.5353ZM60.161 37.589C60.0721 37.7552 60.0195 39.4373 60.0195 42.1098C60.0195 44.7822 60.0721 46.4644 60.161 46.6305C60.578 47.4097 64.2803 46.4203 65.5235 45.1974C66.3635 44.3714 66.6242 43.7228 66.6913 42.2933C66.7438 41.1772 66.7132 40.9604 66.4104 40.2989C65.7652 38.8895 64.4135 37.9561 62.4 37.5296C61.0443 37.2423 60.3365 37.2612 60.161 37.589Z"/>
</mask>
<path fill-rule="evenodd" clip-rule="evenodd" d="M33.3411 1.50788C28.1804 2.08866 23.7654 5.20311 21.4698 9.88204C20.1843 12.5024 19.8272 14.5588 19.8268 19.3461C19.8263 23.4171 20.223 26.3784 20.8634 27.086C21.1964 27.4541 21.8404 27.379 22.1675 26.934C22.4122 26.6011 22.4113 26.5636 22.1299 25.4985C21.8994 24.6252 21.8279 23.8628 21.7757 21.717L21.7101 19.0291L22.647 18.9388C25.7351 18.6413 28.391 17.344 30.9805 14.8684L32.2434 13.6612L32.6988 14.0541C35.7557 16.6924 40.7918 18.357 47.0807 18.8079L48.2921 18.8947L48.2258 21.7181C48.1707 24.0614 48.11 24.7097 47.8687 25.5309C47.7089 26.0751 47.5781 26.6963 47.5781 26.911C47.5781 27.7417 48.5959 28.0312 49.1012 27.3442C49.4672 26.8465 49.8866 25.0467 50.0398 23.3155C50.2141 21.346 50.21 17.3079 50.0315 15.2729C49.4962 9.17233 45.4779 4.09391 39.6436 2.14485C37.9203 1.56913 35.2209 1.29623 33.3411 1.50788ZM32.6588 3.41209C32.3111 3.47553 31.4029 3.74104 30.6404 4.00204C25.6143 5.72291 22.0754 10.3634 21.7799 15.6205L21.6972 17.0903H22.4478C24.1026 17.0903 26.3795 16.2148 28.1825 14.8854C28.6815 14.5175 29.7052 13.5711 30.4577 12.7822C31.3867 11.8083 31.9224 11.3481 32.1272 11.3481C32.3051 11.3481 32.7955 11.6841 33.3232 12.1677C35.4117 14.0815 38.4201 15.5299 41.8818 16.2883C43.5194 16.647 46.0092 16.9535 47.2859 16.9535H48.3028L48.2193 15.5522C48.0247 12.292 46.5525 9.18313 44.1165 6.88858C42.6406 5.49842 41.1266 4.5984 39.1238 3.92069C37.5779 3.3976 37.4646 3.37983 35.4101 3.33895C34.2446 3.31571 33.0064 3.34852 32.6588 3.41209ZM27.7502 20.8779C27.0441 21.3645 26.8221 22.0277 27.1237 22.7496C27.5145 23.6848 28.5018 24.046 29.399 23.5821C30.4037 23.0625 30.4614 21.5306 29.5015 20.8584C29.0987 20.5762 28.1728 20.5866 27.7502 20.8779ZM40.4984 20.8584C39.1792 21.7823 39.8437 23.7895 41.4688 23.7895C42.6205 23.7895 43.4322 22.224 42.7482 21.3223C42.2464 20.6609 41.1137 20.4273 40.4984 20.8584ZM9.36518 28.3523C8.54719 28.7376 7.79892 29.4421 7.44004 30.1652C7.21541 30.6176 7.17166 31.0596 7.13543 33.2335L7.09318 35.7732L6.44746 35.9387C5.09504 36.2853 3.67986 37.1342 2.76904 38.1449C2.21615 38.7587 1.63004 40.1155 1.47937 41.1307C0.997714 44.376 2.93174 47.2674 6.21244 48.2069L7.1007 48.4613L7.13912 54.0013C7.17521 59.1914 7.19463 59.5757 7.4466 60.0838C7.78225 60.7607 8.54254 61.5314 9.16461 61.8252C9.42533 61.9482 15.3448 63.5305 22.3193 65.341L34.9999 68.6332L47.6806 65.341C54.6549 63.5305 60.5745 61.9482 60.8353 61.8252C61.4573 61.5314 62.2176 60.7607 62.5533 60.0838C62.8052 59.5757 62.8247 59.1914 62.8608 54.0013L62.8992 48.4613L63.7874 48.2069C65.5668 47.6973 67.2403 46.374 67.9535 44.9125C68.7793 43.2205 68.7799 40.9738 67.955 39.2982C67.2087 37.7821 65.4252 36.4186 63.5649 35.9419L62.9067 35.7732L62.8644 33.2335C62.8282 31.0596 62.7845 30.6176 62.5598 30.1652C61.9648 28.9665 60.519 28.0316 59.2566 28.0291C58.725 28.028 55.8232 28.8931 46.8835 31.7174C40.4604 33.7467 35.1127 35.407 34.9999 35.407C34.8871 35.407 29.5395 33.7467 23.1163 31.7174C10.4097 27.7031 10.6298 27.7568 9.36518 28.3523ZM9.97521 30.1127C9.01176 30.5986 8.88707 30.9821 8.88693 33.4623L8.88666 35.5473H9.45568C10.2715 35.5473 11.1124 36.0779 11.4712 36.819C11.745 37.3848 11.7578 37.6186 11.7578 42.1098C11.7578 46.601 11.745 46.8348 11.4712 47.4005C11.1124 48.1417 10.2715 48.6723 9.45568 48.6723H8.88666V53.7019C8.88666 58.6459 8.89185 58.7419 9.19428 59.3415C9.4025 59.7544 9.65652 60.0225 9.98041 60.1712C10.3862 60.3575 33.6456 66.4494 33.9404 66.4467C33.9967 66.4461 34.0429 59.8367 34.0429 51.7591V37.0724L33.5986 36.9291C28.4837 35.2799 10.9682 29.8051 10.8069 29.8051C10.6849 29.8051 10.3107 29.9435 9.97521 30.1127ZM48.7402 33.0289C43.1757 34.7923 38.0232 36.4213 37.29 36.6491L35.957 37.063V51.7543C35.957 59.8346 36.003 66.4459 36.0595 66.4461C36.3596 66.4472 59.6157 60.3568 60.0195 60.1714C60.3432 60.0227 60.5975 59.7543 60.8056 59.3415C61.108 58.7419 61.1132 58.6459 61.1132 53.7019V48.6723H60.5442C59.7284 48.6723 58.8874 48.1417 58.5287 47.4005C58.2548 46.8348 58.2421 46.601 58.2421 42.1098C58.2421 37.6186 58.2548 37.3848 58.5287 36.819C58.8874 36.0779 59.7284 35.5473 60.5442 35.5473H61.1132V33.4601C61.1132 31.7055 61.0736 31.2973 60.8638 30.8967C60.6023 30.397 59.6461 29.7979 59.136 29.8139C58.9827 29.8186 54.3046 31.2654 48.7402 33.0289ZM7.53738 37.5353C5.58435 37.959 4.22496 38.9107 3.58949 40.2989C3.28666 40.9604 3.25603 41.1772 3.30853 42.2933C3.35242 43.228 3.44279 43.6907 3.66496 44.1187C4.31465 45.3705 5.72654 46.2931 7.59986 46.69C8.95557 46.9773 9.66336 46.9584 9.83891 46.6305C10.0311 46.2712 10.0311 37.9483 9.83891 37.589C9.66664 37.2672 8.85959 37.2485 7.53738 37.5353ZM60.161 37.589C60.0721 37.7552 60.0195 39.4373 60.0195 42.1098C60.0195 44.7822 60.0721 46.4644 60.161 46.6305C60.578 47.4097 64.2803 46.4203 65.5235 45.1974C66.3635 44.3714 66.6242 43.7228 66.6913 42.2933C66.7438 41.1772 66.7132 40.9604 66.4104 40.2989C65.7652 38.8895 64.4135 37.9561 62.4 37.5296C61.0443 37.2423 60.3365 37.2612 60.161 37.589Z" fill="white" stroke="white" stroke-width="2" mask="url(#path-1-inside-1_703_349)"/>
</g>
</svg>
