<svg width="70" height="70" viewBox="0 0 70 70" fill="none" xmlns="http://www.w3.org/2000/svg">
<g opacity="0.4">
<path fill-rule="evenodd" clip-rule="evenodd" d="M26.25 2.17463C23.7148 2.5152 21.666 4.21215 20.8588 6.63986C20.5821 7.47193 20.5754 7.76301 20.542 20.2363L20.5078 32.9824L12.2363 36.136L3.96484 39.2895L3.20496 40.0394C2.63717 40.5998 2.39518 40.9624 2.24793 41.4731C2.08264 42.0462 2.05078 44.1832 2.05078 54.6968V67.2369L2.36223 67.5483L2.67367 67.8598H34.9316H67.1896L67.5011 67.5483L67.8125 67.2369V49.0229C67.8125 31.4852 67.8029 30.7841 67.554 30.1385C67.2395 29.3234 66.5191 28.4994 65.771 28.099C65.2418 27.8157 65.0027 27.7979 60.8398 27.7328L56.4648 27.6645L56.3903 23.9047C56.3187 20.2948 56.3012 20.1012 55.9498 19.0483C54.8033 15.6111 51.8978 13.0209 48.2959 12.2248L47.9199 12.1417L47.9179 10.0593C47.9147 6.84016 47.5273 5.64906 45.9721 4.0794C44.8682 2.96527 43.5872 2.34129 42.041 2.16451C40.663 2.00715 27.434 2.01549 26.25 2.17463ZM25.3034 4.28324C24.303 4.69449 23.2944 5.65617 22.7917 6.67815L22.4219 7.4301L22.3822 13.2748L22.3424 19.1196H29.4438H36.5452L37.1638 17.8549C38.4783 15.1677 40.864 13.1492 43.5724 12.4326C44.1212 12.2873 44.9313 12.1276 45.3724 12.0776L46.1747 11.9865L46.105 9.84496C46.0667 8.66727 45.9655 7.47727 45.8802 7.20082C45.6411 6.42576 44.9146 5.44043 44.1602 4.86826C42.9264 3.93229 43.0475 3.94336 34.1206 3.94705L26.1133 3.9502L25.3034 4.28324ZM45.3198 13.9487C42.7301 14.1848 40.3052 15.8107 38.9825 18.1981C38.0473 19.886 38.0311 20.0064 37.972 25.6583C37.9191 30.7352 37.9202 30.7606 38.1936 30.6143C38.3808 30.5141 41.0458 30.4672 46.5529 30.4672H54.6373L54.5936 25.4428C54.55 20.4262 54.5494 20.4169 54.195 19.4474C53.7558 18.245 53.086 17.2216 52.095 16.2385C50.2808 14.4387 48.0852 13.6966 45.3198 13.9487ZM22.3535 26.5707C22.3535 29.6913 22.3753 32.2446 22.4019 32.2446C22.4284 32.2446 23.4283 31.8693 24.6236 31.4106C25.8189 30.9519 26.9373 30.5751 27.109 30.5732C27.2807 30.5712 27.5421 30.6793 27.6901 30.8131C27.9519 31.05 27.959 31.2764 27.959 39.3068V47.5571H32.0605H36.1621V34.227V20.8969H29.2578H22.3535V26.5707ZM56.3965 32.8598V36.2094H61.1816H65.9668V33.5253C65.9668 31.0729 65.943 30.8029 65.6912 30.3953C65.1677 29.5483 64.9414 29.5102 60.4432 29.5102H56.3965V32.8598ZM37.9395 35.6236V39.1488L46.2793 39.1126L54.6191 39.0764V35.7288V32.3813H46.5437C41.2386 32.3813 38.3776 32.3327 38.2039 32.2398C37.9456 32.1015 37.9395 32.1806 37.9395 35.6236ZM15.5176 36.8077C9.76514 39.0086 4.91682 40.8857 4.74359 40.979C4.57051 41.0723 4.30924 41.3447 4.16309 41.5844C3.90551 42.007 3.89744 42.3788 3.89703 54.017L3.89648 66.0141H7.24609H10.5957V62.4881C10.5957 58.6601 10.6907 57.9485 11.368 56.7041C11.5622 56.3472 12.037 55.732 12.4231 55.337C13.9024 53.8236 15.4063 53.2262 17.4744 53.331C19.5649 53.4368 21.235 54.3193 22.451 55.9603C23.5884 57.4955 23.6436 57.771 23.6928 62.1518L23.7363 66.0141H44.8515H65.9668V57.6752V49.3362L46.4297 49.3363C35.6843 49.3363 26.8025 49.3017 26.6924 49.2595C26.2076 49.0735 26.1816 48.6349 26.1816 40.6463C26.1816 36.3262 26.1354 32.7947 26.0791 32.7987C26.0228 32.8026 21.27 34.6068 15.5176 36.8077ZM56.4002 42.8403L56.3936 47.5571H61.1803H65.9668V42.8403V38.1235H61.1867H56.4067L56.4002 42.8403ZM37.9395 44.1245V47.5571H46.2793H54.6191V44.2074V40.8578H46.4956C42.0276 40.8578 38.2747 40.8205 38.1557 40.7748C37.962 40.7005 37.9395 41.0506 37.9395 44.1245ZM15.8301 55.275C14.4379 55.71 13.4267 56.5989 12.797 57.9414C12.4461 58.6898 12.4409 58.7472 12.3972 62.3569L12.3532 66.0141H17.1564H21.9596L21.9174 62.3569C21.8755 58.7486 21.8702 58.6895 21.5209 57.9477C21.0599 56.9686 20.5408 56.3675 19.6923 55.8298C18.5395 55.0991 17.0687 54.8879 15.8301 55.275ZM32.1501 57.104C31.8432 57.443 31.865 58.0256 32.1973 58.3578C32.4416 58.6021 32.6529 58.6313 34.1858 58.6313C35.8247 58.6313 35.916 58.6164 36.2366 58.2956C36.4212 58.1111 36.5723 57.8918 36.5723 57.8082C36.5723 57.5975 36.2891 57.0798 36.1074 56.9585C36.0247 56.9033 35.1513 56.8572 34.1667 56.856C32.6043 56.8542 32.3475 56.8858 32.1501 57.104ZM43.5449 57.1274C43.1819 57.4904 43.199 57.9686 43.5879 58.334C43.878 58.6065 44.0468 58.6313 45.6148 58.6313C47.2261 58.6313 47.3427 58.6129 47.6227 58.3149C47.9935 57.9201 48.0022 57.4831 47.6465 57.1274C47.4011 56.882 47.1908 56.8539 45.5957 56.8539C44.0006 56.8539 43.7903 56.882 43.5449 57.1274ZM54.8926 57.1274C54.5433 57.4767 54.5461 57.8181 54.9026 58.271C55.1821 58.6265 55.2088 58.6313 56.9275 58.6313C58.4913 58.6313 58.6996 58.6028 58.9683 58.3525C59.3415 58.0048 59.3525 57.4857 58.9941 57.1274C58.7487 56.882 58.5385 56.8539 56.9434 56.8539C55.3483 56.8539 55.138 56.882 54.8926 57.1274Z" fill="white"/>
</g>
</svg>
