<svg width="70" height="70" viewBox="0 0 70 70" fill="none" xmlns="http://www.w3.org/2000/svg">
<g opacity="0.4">
<path d="M37.6832 6.59121L56.6707 16.8287C58.8873 18.0245 58.8873 21.437 56.6707 22.6329L37.6832 32.8704C35.9915 33.7745 34.0082 33.7745 32.3165 32.8704L13.329 22.6329C11.1123 21.437 11.1123 18.0245 13.329 16.8287L32.3165 6.59121C34.0082 5.68704 35.9915 5.68704 37.6832 6.59121Z" stroke="white" stroke-width="2" stroke-linecap="round" stroke-linejoin="round"/>
<path d="M10.5293 29.546L28.1752 38.3835C30.3627 39.4919 31.7627 41.7377 31.7627 44.1877V60.871C31.7627 63.2919 29.2252 64.8377 27.0668 63.7585L9.421 54.921C7.2335 53.8127 5.8335 51.5669 5.8335 49.1169V32.4335C5.8335 30.0127 8.371 28.4669 10.5293 29.546Z" stroke="white" stroke-width="2" stroke-linecap="round" stroke-linejoin="round"/>
<path d="M59.4706 29.546L41.8248 38.3835C39.6373 39.4919 38.2373 41.7377 38.2373 44.1877V60.871C38.2373 63.2919 40.7748 64.8377 42.9331 63.7585L60.579 54.921C62.7665 53.8127 64.1665 51.5669 64.1665 49.1169V32.4335C64.1665 30.0127 61.629 28.4669 59.4706 29.546Z" stroke="white" stroke-width="2" stroke-linecap="round" stroke-linejoin="round"/>
</g>
</svg>
