<svg width="32" height="31" viewBox="0 0 32 31" fill="none" xmlns="http://www.w3.org/2000/svg">
<path fill-rule="evenodd" clip-rule="evenodd" d="M7.70869 0.917292C9.33765 0.939167 10.4985 2.15979 11.967 3.70417C12.3302 4.08479 12.7224 4.50042 13.1614 4.93792C15.2891 7.06708 14.6839 8.80396 14.1954 10.1981C13.6645 11.7192 13.2052 13.0317 15.9556 15.7821C18.706 18.5325 20.017 18.0731 21.5366 17.5379C22.9322 17.0508 24.6647 16.4413 26.7968 18.5704C27.2299 19.0035 27.6383 19.3915 28.0174 19.7517C29.5677 21.2275 30.7927 22.3927 30.8133 24.026C30.8291 25.4173 29.9833 26.8377 27.8949 28.926L26.9704 28.299L27.7535 29.0617C27.2912 29.5356 26.0618 30.7985 23.6541 30.8131H23.6104C19.9762 30.8131 15.2381 27.9198 9.52724 22.2104C3.79307 16.4777 0.895362 11.725 0.917114 8.08354C0.930362 5.67729 2.19182 4.445 2.66578 3.98271L2.70623 3.93853L2.80432 3.83979C4.89703 1.74708 6.33494 0.886667 7.70869 0.917292ZM7.68099 3.10479H7.66932C7.01444 3.10479 6.01989 3.76104 4.63282 5.10839L4.35428 5.38192L4.35745 5.38125C4.35745 5.38125 4.33364 5.40855 4.29308 5.44992L4.19557 5.5475C3.84265 5.89021 3.11203 6.60333 3.10466 8.09521C3.09307 10.1821 4.46536 14.0569 11.0731 20.6631C17.6487 27.2373 21.5177 28.6256 23.6104 28.6256H23.641C25.1329 28.6169 25.8445 27.8862 26.1872 27.5348C26.2908 27.4283 26.3754 27.3481 26.4352 27.3C27.8891 25.8373 28.6329 24.7508 28.6256 24.0523C28.6168 23.3406 27.7316 22.5006 26.5081 21.3354C26.1187 20.9665 25.6958 20.5625 25.2495 20.1162C24.0916 18.9627 23.5214 19.1596 22.2599 19.6029C20.5172 20.214 18.1299 21.051 14.4097 17.3279C10.6881 13.6077 11.5222 11.2204 12.1304 9.47625C12.5708 8.21625 12.772 7.64313 11.6156 6.48521C11.1635 6.03312 10.7566 5.60438 10.3818 5.21063C9.2239 3.99438 8.38828 3.115 7.68099 3.10479ZM20.2345 6.10531C23.2693 6.69448 25.6128 9.03656 26.2034 12.0728C26.3186 12.6678 25.9322 13.2409 25.3401 13.3561C25.2686 13.3693 25.1986 13.3766 25.1286 13.3766C24.6153 13.3766 24.1588 13.0149 24.0568 12.4928C23.6368 10.3345 21.9728 8.67052 19.8174 8.25198C19.2238 8.13677 18.8374 7.56365 18.9526 6.9701C19.0678 6.37656 19.6511 5.98865 20.2345 6.10531ZM20.1471 0.925604C26.0942 1.58623 30.7127 6.19894 31.3792 12.1446C31.4463 12.7454 31.0146 13.2864 30.4152 13.3535C30.3744 13.3579 30.3321 13.3608 30.2913 13.3608C29.7415 13.3608 29.269 12.9481 29.2063 12.3896C28.6536 7.46623 24.8298 3.6454 19.905 3.09852C19.3057 3.03144 18.8725 2.49185 18.9396 1.89102C19.0052 1.29165 19.5404 0.849771 20.1471 0.925604Z" fill="#D9D9D9"/>
</svg>
