<svg width="193" height="56" viewBox="0 0 193 56" fill="none" xmlns="http://www.w3.org/2000/svg">
<path fill-rule="evenodd" clip-rule="evenodd" d="M60.0904 34.703H30.958L43.4358 26.8478L43.7169 27.3063L46.7234 25.4135C46.9233 25.4727 47.1348 25.5046 47.3537 25.5046C47.5726 25.5046 47.7843 25.4726 47.9842 25.4133L50.9908 27.3063L51.1689 27.0157C51.9581 27.5361 52.7438 28.0678 53.4495 28.5937C54.3749 29.2832 54.7332 30.4901 54.3903 31.5611L60.0904 34.703ZM52.027 25.616L52.3088 25.1561L49.5838 23.4403C49.5899 23.3727 49.593 23.3044 49.593 23.2352C49.593 22.4507 49.2 21.759 48.6027 21.3514V17.9891H48.0491L48.2041 15.1533C48.2684 13.9871 49.072 13.0205 50.1482 12.7279L49.5809 3.36282L63.5936 33.1346L52.027 25.616ZM46.6796 17.9891H46.1049V21.3514C45.5074 21.759 45.1144 22.4506 45.1144 23.2352C45.1144 23.3044 45.1176 23.3728 45.1236 23.4405L42.3987 25.1561L42.6519 25.5691L40.3364 27.0993C39.3656 27.6895 38.1459 27.5743 37.3017 26.8621L32.4385 30.3126L46.6796 0V17.9891Z" fill="#E74B23"/>
<path fill-rule="evenodd" clip-rule="evenodd" d="M192.874 34.7029H186.194V0.290527H192.874V34.7029Z" fill="#D9D9D9"/>
<path fill-rule="evenodd" clip-rule="evenodd" d="M179.648 34.7029H161.14V0.290527H167.82V28.7795H179.648V34.7029Z" fill="#D9D9D9"/>
<path fill-rule="evenodd" clip-rule="evenodd" d="M151.999 34.7029H132.385V0.290527H151.999V6.21393H139.065V13.5477H150.577V19.1892H139.065V28.7795H151.999V34.7029Z" fill="#D9D9D9"/>
<path fill-rule="evenodd" clip-rule="evenodd" d="M122.271 34.7029H115.591V19.1892H101.118V34.7029H94.4385V0.290527H101.118V13.4067H115.591V0.290527H122.271V34.7029Z" fill="#D9D9D9"/>
<path fill-rule="evenodd" clip-rule="evenodd" d="M87.7105 0.297852L73.2478 34.7029L58.8301 0.297852H65.9197L73.2478 19.7454L80.6209 0.297852H87.7105Z" fill="#D9D9D9"/>
<path fill-rule="evenodd" clip-rule="evenodd" d="M26.2029 22.0672C26.2029 25.663 25.0508 28.6644 22.7393 31.0698C20.3193 33.5928 17.1418 34.8543 13.2065 34.8543C9.26349 34.8543 6.086 33.5928 3.66604 31.0698C1.36984 28.6801 0.225586 25.6792 0.225586 22.0672V0.297852H6.90546V22.0672C6.90546 24.1431 7.43128 25.7731 8.49045 26.9563C9.59602 28.1786 11.1655 28.7898 13.2065 28.7898C15.2398 28.7898 16.817 28.1786 17.9381 26.9563C18.9973 25.7575 19.523 24.1278 19.523 22.0672V0.297852H26.2029V22.0672Z" fill="#D9D9D9"/>
<path fill-rule="evenodd" clip-rule="evenodd" d="M4.95693 55.149H3.90104L0.82231 51.6404V55.149H0V48.3093H0.82231V51.4395L3.85122 48.3093H4.8775L1.66322 51.5516L4.95693 55.149ZM12.5238 53.0451C12.5238 53.6928 12.3182 54.2037 11.9086 54.5789C11.4882 54.9589 10.8995 55.149 10.1427 55.149H8.27237V48.3093H12.1049V49.0475H9.10402V50.9723H10.1443C10.9073 50.9723 11.4944 51.1529 11.9056 51.5159C12.3182 51.877 12.5238 52.3879 12.5238 53.0451ZM11.6735 53.0465C11.6735 52.1433 11.1519 51.6918 10.1069 51.6918H9.10402V54.42H10.1069C11.1519 54.42 11.6735 53.9622 11.6735 53.0465ZM25.0071 53.0451C25.0071 53.6928 24.8015 54.2037 24.3918 54.5789C23.9715 54.9589 23.3828 55.149 22.6259 55.149H20.7556V48.3093H24.5882V49.0475H21.5873V50.9723H22.6275C23.3906 50.9723 23.9777 51.1529 24.3888 51.5159C24.8015 51.877 25.0071 52.3879 25.0071 53.0451ZM24.1567 53.0465C24.1567 52.1433 23.6351 51.6918 22.5902 51.6918H21.5873V54.42H22.5902C23.6351 54.42 24.1567 53.9622 24.1567 53.0465ZM32.5335 55.1489H28.8006V48.3093H32.5335V49.0381H29.6323V51.0657H32.3372V51.7851H29.6323V54.4107H32.5335V55.1489ZM41.9334 54.677C41.337 55.1225 40.5692 55.3451 39.6302 55.3451C38.593 55.3451 37.7412 54.9948 37.0747 54.2955C36.4237 53.6119 36.0983 52.7554 36.0983 51.7245C36.0983 50.7247 36.4409 49.8713 37.1277 49.1642C37.8129 48.4572 38.6538 48.1038 39.6473 48.1038C40.5537 48.1038 41.3167 48.3311 41.9334 48.7842V49.7373C41.2826 49.1533 40.5194 48.8606 39.6473 48.8606C38.931 48.8606 38.3049 49.1455 37.7661 49.717C37.2272 50.2886 36.958 50.9583 36.958 51.7259C36.958 52.5233 37.2071 53.196 37.7069 53.7458C38.2177 54.308 38.8609 54.5882 39.638 54.5882C40.4898 54.5882 41.2544 54.3001 41.9334 53.7255V54.677ZM50.9082 55.1489H50.086V49.0475H46.4887V55.1489H45.657V48.3093H50.9082V55.1489ZM60.0246 55.1489H59.2024V50.0176L54.5959 55.3996V48.3093H55.4182V53.4468L60.0246 48.0664V55.1489ZM68.8438 55.1489H68.0122V49.0288H65.4706V52.8316C65.4706 53.7302 65.3632 54.3547 65.1468 54.7051C64.9303 55.057 64.5472 55.233 63.9959 55.233C63.8089 55.233 63.6159 55.2049 63.415 55.1505V54.4014C63.5832 54.4699 63.7591 54.5042 63.9429 54.5042C64.2263 54.5042 64.4211 54.3889 64.5223 54.16C64.625 53.9296 64.6764 53.4841 64.6764 52.8207V48.3093H68.8438V55.1489ZM80.036 51.7259C80.036 52.7818 79.681 53.6539 78.9693 54.3406C78.2731 55.0165 77.4089 55.3544 76.378 55.3544C75.3471 55.3544 74.4858 55.0165 73.7913 54.3406C73.0826 53.6539 72.7292 52.7818 72.7292 51.7259C72.7292 50.6717 73.0826 49.7996 73.7913 49.1128C74.4858 48.4401 75.3471 48.1038 76.378 48.1038C77.4089 48.1038 78.2731 48.4401 78.9693 49.1128C79.681 49.7996 80.036 50.6717 80.036 51.7259ZM79.1577 51.7259C79.1577 50.8882 78.8946 50.2014 78.3666 49.6641C77.8387 49.1285 77.1753 48.8606 76.378 48.8606C75.5837 48.8606 74.9234 49.1285 74.397 49.6641C73.8707 50.2014 73.6076 50.8882 73.6076 51.7259C73.6076 52.5592 73.8723 53.2458 74.4002 53.7863C74.9281 54.3267 75.5869 54.5975 76.378 54.5975C77.1721 54.5975 77.8341 54.3267 78.3635 53.7863C78.893 53.2458 79.1577 52.5592 79.1577 51.7259ZM87.7306 49.0475H85.8557V55.1489H85.024V49.0475H83.1459V48.3093H87.7306V49.0475ZM96.5124 55.1489H95.6901V51.7851H92.0087V55.1489H91.177V48.3093H92.0087V51.0564H95.6901V48.3093H96.5124V55.1489ZM105.934 55.1489H105.102V48.3093H105.934V55.1489ZM104.411 53.0497C104.411 53.6727 104.218 54.1709 103.832 54.5416C103.408 54.9464 102.795 55.1489 101.991 55.1489H100.206V48.3093H101.038V51.0002H101.993C102.787 51.0002 103.388 51.1763 103.797 51.5297C104.207 51.8833 104.411 52.3894 104.411 53.0497ZM103.551 53.0497C103.551 52.1635 103.02 51.7198 101.957 51.7198H101.038V54.4294H101.957C102.53 54.4294 102.944 54.3095 103.199 54.0682C103.435 53.8486 103.551 53.5091 103.551 53.0497ZM113.361 55.1489H109.628V48.3093H113.361V49.0381H110.46V51.0657H113.164V51.7851H110.46V54.4107H113.361V55.1489ZM126.045 53.1509C126.045 53.7676 125.835 54.255 125.416 54.6132C124.995 54.9698 124.416 55.1489 123.676 55.1489H121.709V48.3093H123.34C124.801 48.3093 125.531 48.8652 125.531 49.9787C125.531 50.3041 125.453 50.597 125.296 50.857C125.139 51.1171 124.931 51.3008 124.675 51.4067C124.671 51.4099 124.668 51.4146 124.665 51.4207C125.104 51.5329 125.444 51.7416 125.684 52.0468C125.925 52.3505 126.045 52.7181 126.045 53.1509ZM124.681 50.041C124.681 49.3729 124.256 49.0381 123.407 49.0381H122.532V51.1404H123.461C123.899 51.1404 124.214 51.047 124.405 50.8616C124.589 50.6889 124.681 50.4147 124.681 50.041ZM125.157 53.1493C125.157 52.2835 124.659 51.8506 123.664 51.8506H122.532V54.42H123.645C124.653 54.42 125.157 53.9965 125.157 53.1493ZM133.592 55.1489H129.859V48.3093H133.592V49.0381H130.69V51.0657H133.395V51.7851H130.69V54.4107H133.592V55.1489ZM141.669 50.2886C141.669 50.8586 141.487 51.3133 141.121 51.6528C140.735 52.0156 140.189 52.1963 139.48 52.1963H138.343V55.1489H137.521V48.3093H139.436C140.156 48.3093 140.71 48.4868 141.099 48.8434C141.48 49.1892 141.669 49.6719 141.669 50.2886ZM140.819 50.2574C140.819 49.4321 140.335 49.0194 139.366 49.0194H138.343V51.4956H139.34C140.326 51.4956 140.819 51.0828 140.819 50.2574ZM149.243 49.0475H147.368V55.1489H146.536V49.0475H144.658V48.3093H149.243V49.0475ZM159.65 51.7259C159.65 52.7818 159.295 53.6539 158.583 54.3406C157.887 55.0165 157.023 55.3544 155.992 55.3544C154.961 55.3544 154.1 55.0165 153.405 54.3406C152.697 53.6539 152.343 52.7818 152.343 51.7259C152.343 50.6717 152.697 49.7996 153.405 49.1128C154.1 48.4401 154.961 48.1038 155.992 48.1038C157.023 48.1038 157.887 48.4401 158.583 49.1128C159.295 49.7996 159.65 50.6717 159.65 51.7259ZM158.772 51.7259C158.772 50.8882 158.509 50.2014 157.981 49.6641C157.453 49.1285 156.79 48.8606 155.992 48.8606C155.198 48.8606 154.538 49.1285 154.011 49.6641C153.485 50.2014 153.222 50.8882 153.222 51.7259C153.222 52.5592 153.486 53.2458 154.014 53.7863C154.542 54.3267 155.201 54.5975 155.992 54.5975C156.786 54.5975 157.448 54.3267 157.978 53.7863C158.507 53.2458 158.772 52.5592 158.772 51.7259ZM168.133 55.1489H167.301V49.0288H164.76V52.8316C164.76 53.7302 164.652 54.3547 164.436 54.7051C164.219 55.057 163.836 55.233 163.285 55.233C163.098 55.233 162.905 55.2049 162.704 55.1505V54.4014C162.872 54.4699 163.048 54.5042 163.232 54.5042C163.515 54.5042 163.71 54.3889 163.811 54.16C163.914 53.9296 163.966 53.4841 163.966 52.8207V48.3093H168.133V55.1489ZM175.549 55.1489H171.816V48.3093H175.549V49.0381H172.648V51.0657H175.352V51.7851H172.648V54.4107H175.549V55.1489ZM183.826 49.0475H181.951V55.1489H181.119V49.0475H179.241V48.3093H183.826V49.0475ZM193 55.1489H192.168V48.3093H193V55.1489ZM191.477 53.0497C191.477 53.6727 191.284 54.1709 190.898 54.5416C190.474 54.9464 189.86 55.1489 189.057 55.1489H187.272V48.3093H188.104V51.0002H189.059C189.853 51.0002 190.454 51.1763 190.863 51.5297C191.273 51.8833 191.477 52.3894 191.477 53.0497ZM190.617 53.0497C190.617 52.1635 190.086 51.7198 189.023 51.7198H188.104V54.4294H189.023C189.596 54.4294 190.01 54.3095 190.265 54.0682C190.501 53.8486 190.617 53.5091 190.617 53.0497Z" fill="#D9D9D9"/>
</svg>
