<svg width="270" height="78" viewBox="0 0 270 78" fill="none" xmlns="http://www.w3.org/2000/svg">
<path fill-rule="evenodd" clip-rule="evenodd" d="M84.0666 48.5483H43.3115L60.7675 37.559L61.1608 38.2006L65.3667 35.5525C65.6464 35.6354 65.9423 35.6801 66.2485 35.6801C66.5548 35.6801 66.8508 35.6352 67.1306 35.5523L71.3367 38.2006L71.5858 37.7939C72.6899 38.522 73.7891 39.2658 74.7764 40.0015C76.0708 40.9661 76.5721 42.6546 76.0924 44.1529L84.0666 48.5483ZM72.7862 35.8358L73.1806 35.1925L69.3684 32.7921C69.3768 32.6975 69.3812 32.6019 69.3812 32.5053C69.3812 31.4078 68.8314 30.4401 67.9958 29.8698V25.166H67.2214L67.4382 21.1989C67.5281 19.5674 68.6524 18.2153 70.1579 17.8059L69.3643 4.70447L88.9676 46.3541L72.7862 35.8358ZM65.3055 25.166H64.5014V29.8698C63.6656 30.4401 63.1158 31.4075 63.1158 32.5053C63.1158 32.6019 63.1203 32.6977 63.1287 32.7924L59.3167 35.1925L59.6708 35.7703L56.4316 37.911C55.0735 38.7366 53.3671 38.5754 52.1861 37.5791L45.3827 42.4062L65.3055 0V25.166Z" fill="#E74B23"/>
<path fill-rule="evenodd" clip-rule="evenodd" d="M269.825 48.5479H260.48V0.40625H269.825V48.5479Z" fill="white"/>
<path fill-rule="evenodd" clip-rule="evenodd" d="M251.319 48.5479H225.426V0.40625H234.771V40.2613H251.319V48.5479Z" fill="white"/>
<path fill-rule="evenodd" clip-rule="evenodd" d="M212.642 48.5479H185.202V0.40625H212.642V8.69288H194.547V18.9526H210.652V26.8448H194.547V40.2613H212.642V48.5479Z" fill="white"/>
<path fill-rule="evenodd" clip-rule="evenodd" d="M171.054 48.5479H161.709V26.8448H141.462V48.5479H132.117V0.40625H141.462V18.7554H161.709V0.40625H171.054V48.5479Z" fill="white"/>
<path fill-rule="evenodd" clip-rule="evenodd" d="M122.703 0.416992L102.471 48.5484L82.3008 0.416992H92.2189L102.471 27.6235L112.785 0.416992H122.703Z" fill="white"/>
<path fill-rule="evenodd" clip-rule="evenodd" d="M36.6567 30.8715C36.6567 35.902 35.0451 40.1007 31.8113 43.4659C28.4258 46.9954 23.9806 48.7602 18.4753 48.7602C12.9591 48.7602 8.51394 46.9954 5.12849 43.4659C1.9162 40.1227 0.31543 35.9246 0.31543 30.8715V0.416992H9.66033V30.8715C9.66033 33.7757 10.3959 36.056 11.8777 37.7112C13.4243 39.4212 15.62 40.2762 18.4753 40.2762C21.3198 40.2762 23.5262 39.4212 25.0946 37.7112C26.5763 36.0341 27.3118 33.7542 27.3118 30.8715V0.416992H36.6567V30.8715Z" fill="white"/>
<path fill-rule="evenodd" clip-rule="evenodd" d="M6.93456 77.1514H5.45741L1.15038 72.243V77.1514H0V67.583H1.15038V71.9619L5.38771 67.583H6.82345L2.32679 72.1189L6.93456 77.1514ZM17.5204 74.2082C17.5204 75.1143 17.2327 75.829 16.6597 76.354C16.0716 76.8856 15.2481 77.1514 14.1893 77.1514H11.5727V67.583H16.9344V68.6157H12.7362V71.3084H14.1915C15.2589 71.3084 16.0803 71.5611 16.6555 72.0688C17.2327 72.5741 17.5204 73.2888 17.5204 74.2082ZM16.3308 74.2101C16.3308 72.9466 15.601 72.3149 14.1392 72.3149H12.7362V76.1317H14.1392C15.601 76.1317 16.3308 75.4912 16.3308 74.2101ZM34.984 74.2082C34.984 75.1143 34.6963 75.829 34.1233 76.354C33.5353 76.8856 32.7117 77.1514 31.6529 77.1514H29.0363V67.583H34.398V68.6157H30.1998V71.3084H31.6551C32.7225 71.3084 33.5439 71.5611 34.1191 72.0688C34.6963 72.5741 34.984 73.2888 34.984 74.2082ZM33.7944 74.2101C33.7944 72.9466 33.0647 72.3149 31.6028 72.3149H30.1998V76.1317H31.6028C33.0647 76.1317 33.7944 75.4912 33.7944 74.2101ZM45.5132 77.1514H40.291V67.5829H45.5132V68.6026H41.4545V71.4391H45.2386V72.4455H41.4545V76.1186H45.5132V77.1514ZM58.6634 76.4911C57.8289 77.1144 56.7549 77.4258 55.4413 77.4258C53.9903 77.4258 52.7986 76.9358 51.8662 75.9575C50.9554 75.0011 50.5002 73.8029 50.5002 72.3607C50.5002 70.962 50.9795 69.7681 51.9403 68.779C52.8989 67.7898 54.0752 67.2954 55.4652 67.2954C56.7332 67.2954 57.8006 67.6135 58.6634 68.2473V69.5806C57.7528 68.7637 56.6851 68.3543 55.4652 68.3543C54.463 68.3543 53.5872 68.7528 52.8334 69.5523C52.0795 70.3519 51.7028 71.2888 51.7028 72.3627C51.7028 73.4782 52.0514 74.4193 52.7506 75.1884C53.4652 75.9749 54.365 76.367 55.4521 76.367C56.6438 76.367 57.7134 75.9639 58.6634 75.16V76.4911ZM71.2188 77.1514H70.0685V68.6156H65.036V77.1514H63.8725V67.5829H71.2188V77.1514ZM83.9723 77.1514H82.822V69.9728L76.3777 77.5021V67.5829H77.5281V74.7701L83.9723 67.2432V77.1514ZM96.31 77.1514H95.1466V68.5895H91.591V73.9096C91.591 75.1667 91.4407 76.0403 91.138 76.5305C90.8352 77.0227 90.2992 77.269 89.528 77.269C89.2664 77.269 88.9964 77.2297 88.7153 77.1536V76.1056C88.9506 76.2015 89.1967 76.2494 89.4538 76.2494C89.8503 76.2494 90.1227 76.0881 90.2644 75.7678C90.408 75.4455 90.48 74.8223 90.48 73.8943V67.5829H96.31V77.1514ZM111.967 72.3627C111.967 73.8399 111.471 75.0598 110.475 76.0206C109.501 76.9661 108.292 77.4388 106.85 77.4388C105.408 77.4388 104.203 76.9661 103.231 76.0206C102.24 75.0598 101.746 73.8399 101.746 72.3627C101.746 70.8878 102.24 69.6678 103.231 68.707C104.203 67.7659 105.408 67.2954 106.85 67.2954C108.292 67.2954 109.501 67.7659 110.475 68.707C111.471 69.6678 111.967 70.8878 111.967 72.3627ZM110.739 72.3627C110.739 71.1908 110.371 70.23 109.632 69.4783C108.893 68.7289 107.965 68.3543 106.85 68.3543C105.739 68.3543 104.815 68.7289 104.079 69.4783C103.342 70.23 102.974 71.1908 102.974 72.3627C102.974 73.5284 103.345 74.489 104.083 75.2451C104.822 76.0011 105.743 76.38 106.85 76.38C107.961 76.38 108.887 76.0011 109.628 75.2451C110.368 74.489 110.739 73.5284 110.739 72.3627ZM122.732 68.6156H120.109V77.1514H118.946V68.6156H116.318V67.5829H122.732V68.6156ZM135.017 77.1514H133.867V72.4455H128.717V77.1514H127.553V67.5829H128.717V71.4261H133.867V67.5829H135.017V77.1514ZM148.198 77.1514H147.035V67.5829H148.198V77.1514ZM146.067 74.2146C146.067 75.0861 145.797 75.7831 145.257 76.3017C144.664 76.8681 143.806 77.1514 142.682 77.1514H140.185V67.5829H141.348V71.3475H142.684C143.795 71.3475 144.636 71.5938 145.209 72.0882C145.782 72.5829 146.067 73.2909 146.067 74.2146ZM144.865 74.2146C144.865 72.9749 144.122 72.3541 142.634 72.3541H141.348V76.1448H142.634C143.436 76.1448 144.015 75.977 144.372 75.6394C144.701 75.3322 144.865 74.8573 144.865 74.2146ZM158.588 77.1514H153.365V67.5829H158.588V68.6026H154.529V71.4391H158.313V72.4455H154.529V76.1186H158.588V77.1514ZM176.332 74.3562C176.332 75.2189 176.038 75.9008 175.452 76.4019C174.864 76.9008 174.053 77.1514 173.019 77.1514H170.267V67.5829H172.548C174.592 67.5829 175.613 68.3607 175.613 69.9184C175.613 70.3736 175.504 70.7833 175.284 71.1471C175.064 71.511 174.775 71.768 174.415 71.9161C174.411 71.9206 174.407 71.9271 174.402 71.9358C175.016 72.0927 175.491 72.3846 175.827 72.8116C176.165 73.2365 176.332 73.7507 176.332 74.3562ZM174.424 70.0056C174.424 69.0709 173.829 68.6026 172.642 68.6026H171.417V71.5435H172.718C173.33 71.5435 173.77 71.413 174.038 71.1536C174.295 70.9119 174.424 70.5284 174.424 70.0056ZM175.09 74.354C175.09 73.1427 174.393 72.5371 173.001 72.5371H171.417V76.1317H172.975C174.385 76.1317 175.09 75.5392 175.09 74.354ZM186.89 77.1514H181.668V67.5829H186.89V68.6026H182.831V71.4391H186.615V72.4455H182.831V76.1186H186.89V77.1514ZM198.19 70.3519C198.19 71.1494 197.936 71.7855 197.424 72.2604C196.883 72.7679 196.119 73.0207 195.127 73.0207H193.537V77.1514H192.387V67.5829H195.066C196.073 67.5829 196.849 67.8313 197.393 68.3302C197.925 68.8139 198.19 69.4892 198.19 70.3519ZM197.001 70.3083C197.001 69.1537 196.323 68.5764 194.968 68.5764H193.537V72.0405H194.931C196.31 72.0405 197.001 71.463 197.001 70.3083ZM208.785 68.6156H206.162V77.1514H204.999V68.6156H202.371V67.5829H208.785V68.6156ZM223.345 72.3627C223.345 73.8399 222.848 75.0598 221.853 76.0206C220.879 76.9661 219.67 77.4388 218.227 77.4388C216.785 77.4388 215.58 76.9661 214.609 76.0206C213.617 75.0598 213.123 73.8399 213.123 72.3627C213.123 70.8878 213.617 69.6678 214.609 68.707C215.58 67.7659 216.785 67.2954 218.227 67.2954C219.67 67.2954 220.879 67.7659 221.853 68.707C222.848 69.6678 223.345 70.8878 223.345 72.3627ZM222.116 72.3627C222.116 71.1908 221.748 70.23 221.009 69.4783C220.271 68.7289 219.343 68.3543 218.227 68.3543C217.116 68.3543 216.193 68.7289 215.456 69.4783C214.72 70.23 214.352 71.1908 214.352 72.3627C214.352 73.5284 214.722 74.489 215.461 75.2451C216.199 76.0011 217.121 76.38 218.227 76.38C219.338 76.38 220.265 76.0011 221.005 75.2451C221.746 74.489 222.116 73.5284 222.116 72.3627ZM235.212 77.1514H234.049V68.5895H230.493V73.9096C230.493 75.1667 230.343 76.0403 230.04 76.5305C229.737 77.0227 229.201 77.269 228.43 77.269C228.168 77.269 227.898 77.2297 227.617 77.1536V76.1056C227.852 76.2015 228.099 76.2494 228.356 76.2494C228.752 76.2494 229.025 76.0881 229.166 75.7678C229.31 75.4455 229.382 74.8223 229.382 73.8943V67.5829H235.212V77.1514ZM245.586 77.1514H240.364V67.5829H245.586V68.6026H241.528V71.4391H245.312V72.4455H241.528V76.1186H245.586V77.1514ZM257.166 68.6156H254.543V77.1514H253.379V68.6156H250.752V67.5829H257.166V68.6156ZM270 77.1514H268.837V67.5829H270V77.1514ZM267.869 74.2146C267.869 75.0861 267.599 75.7831 267.059 76.3017C266.466 76.8681 265.608 77.1514 264.484 77.1514H261.987V67.5829H263.151V71.3475H264.486C265.597 71.3475 266.438 71.5938 267.011 72.0882C267.584 72.5829 267.869 73.2909 267.869 74.2146ZM266.667 74.2146C266.667 72.9749 265.924 72.3541 264.436 72.3541H263.151V76.1448H264.436C265.238 76.1448 265.817 75.977 266.174 75.6394C266.503 75.3322 266.667 74.8573 266.667 74.2146Z" fill="white"/>
</svg>
