<svg width="40" height="20" viewBox="0 0 40 20" fill="none" xmlns="http://www.w3.org/2000/svg">
<path d="M13.3589 16.2754C13.5808 16.0535 13.601 15.7063 13.4194 15.4617L13.3589 15.3916L7.96783 10.0002L13.3589 4.60877C13.5808 4.38688 13.601 4.03966 13.4194 3.79499L13.3589 3.72489C13.137 3.503 12.7898 3.48283 12.5451 3.66437L12.4751 3.72489L6.64172 9.55822C6.41983 9.78011 6.39966 10.1273 6.5812 10.372L6.64172 10.4421L12.4751 16.2754C12.7191 16.5195 13.1149 16.5195 13.3589 16.2754Z" fill="white"/>
<path d="M26.6411 16.2754C26.4192 16.0535 26.399 15.7063 26.5806 15.4617L26.6411 15.3916L32.0322 10.0002L26.6411 4.60877C26.4192 4.38688 26.399 4.03966 26.5806 3.79499L26.6411 3.72489C26.863 3.503 27.2102 3.48283 27.4549 3.66437L27.5249 3.72489L33.3583 9.55822C33.5802 9.78011 33.6003 10.1273 33.4188 10.372L33.3583 10.4421L27.5249 16.2754C27.2809 16.5195 26.8851 16.5195 26.6411 16.2754Z" fill="white"/>
</svg>
